le-murmure.ufo
<glyph name="numbersign" format="2">
	<advance width="465"/>
	<unicode hex="0023"/>
	<outline>
		<contour>
			<point x="144" y="465" type="line"/>
			<point x="22" y="482" type="line"/>
			<point x="22" y="564" type="line"/>
			<point x="172" y="483" type="line"/>
			<point x="172" y="463" type="line"/>
		</contour>
		<contour>
			<point x="188" y="485" type="line"/>
			<point x="347" y="485" type="line"/>
			<point x="350" y="462" type="line"/>
			<point x="184" y="462" type="line"/>
		</contour>
		<contour>
			<point x="367" y="483" type="line"/>
			<point x="443" y="483" type="line"/>
			<point x="443" y="401" type="line"/>
			<point x="344" y="467" type="line"/>
			<point x="344" y="485" type="line"/>
		</contour>
		<contour>
			<point x="319" y="281" type="line"/>
			<point x="441" y="264" type="line"/>
			<point x="441" y="182" type="line"/>
			<point x="291" y="263" type="line"/>
			<point x="291" y="283" type="line"/>
		</contour>
		<contour>
			<point x="295" y="261" type="line"/>
			<point x="136" y="261" type="line"/>
			<point x="133" y="284" type="line"/>
			<point x="299" y="284" type="line"/>
		</contour>
		<contour>
			<point x="101" y="263" type="line"/>
			<point x="24" y="263" type="line"/>
			<point x="24" y="345" type="line"/>
			<point x="119" y="279" type="line"/>
			<point x="119" y="261" type="line"/>
		</contour>
		<contour>
			<point x="218" y="485" type="line"/>
			<point x="208" y="467" type="line"/>
			<point x="107" y="0" type="line"/>
			<point x="31" y="0" type="line"/>
			<point x="99" y="256" type="line"/>
			<point x="95" y="263" type="line"/>
			<point x="103" y="277" type="line"/>
			<point x="150" y="480" type="line"/>
			<point x="185" y="640" type="line"/>
			<point x="205" y="730" type="line"/>
			<point x="283" y="730" type="line"/>
			<point x="214" y="493" type="line"/>
		</contour>
		<contour>
			<point x="367" y="483" type="line"/>
			<point x="357" y="467" type="line"/>
			<point x="256" y="0" type="line"/>
			<point x="180" y="0" type="line"/>
			<point x="248" y="256" type="line"/>
			<point x="244" y="263" type="line"/>
			<point x="252" y="277" type="line"/>
			<point x="299" y="480" type="line"/>
			<point x="334" y="640" type="line"/>
			<point x="354" y="730" type="line"/>
			<point x="432" y="730" type="line"/>
			<point x="363" y="491" type="line"/>
		</contour>
	</outline>
</glyph>
<glyph name="percent" format="2">
	<advance width="554"/>
	<unicode hex="0025"/>
	<anchor x="143" y="770" name="top"/>
	<outline>
		<contour>
			<point x="394" y="730" type="line"/>
			<point x="491" y="730" type="line"/>
			<point x="303" y="399" type="line"/>
			<point x="288" y="408" type="line"/>
		</contour>
		<contour>
			<point x="132" y="672" type="curve" smooth="yes"/>
			<point x="110" y="672"/>
			<point x="105" y="650"/>
			<point x="105" y="615" type="curve"/>
			<point x="105" y="471" type="line" smooth="yes"/>
			<point x="105" y="399"/>
			<point x="123" y="388"/>
			<point x="144" y="388" type="curve"/>
			<point x="166" y="388"/>
			<point x="171" y="410"/>
			<point x="171" y="445" type="curve"/>
			<point x="171" y="589" type="line" smooth="yes"/>
			<point x="171" y="661"/>
			<point x="152" y="672"/>
		</contour>
		<contour>
			<point x="132" y="320" type="curve" smooth="yes"/>
			<point x="69" y="320"/>
			<point x="35" y="351"/>
			<point x="35" y="437" type="curve"/>
			<point x="35" y="605" type="line" smooth="yes"/>
			<point x="35" y="703"/>
			<point x="85" y="740"/>
			<point x="144" y="740" type="curve"/>
			<point x="208" y="740"/>
			<point x="241" y="709"/>
			<point x="241" y="623" type="curve"/>
			<point x="241" y="455" type="line" smooth="yes"/>
			<point x="241" y="357"/>
			<point x="191" y="320"/>
		</contour>
		<contour>
			<point x="410" y="342" type="curve" smooth="yes"/>
			<point x="388" y="342"/>
			<point x="383" y="320"/>
			<point x="383" y="285" type="curve"/>
			<point x="383" y="141" type="line" smooth="yes"/>
			<point x="383" y="69"/>
			<point x="401" y="58"/>
			<point x="422" y="58" type="curve"/>
			<point x="444" y="58"/>
			<point x="449" y="80"/>
			<point x="449" y="115" type="curve"/>
			<point x="449" y="259" type="line" smooth="yes"/>
			<point x="449" y="331"/>
			<point x="430" y="342"/>
		</contour>
		<contour>
			<point x="410" y="-10" type="curve" smooth="yes"/>
			<point x="347" y="-10"/>
			<point x="313" y="21"/>
			<point x="313" y="107" type="curve"/>
			<point x="313" y="275" type="line" smooth="yes"/>
			<point x="313" y="373"/>
			<point x="363" y="410"/>
			<point x="422" y="410" type="curve"/>
			<point x="486" y="410"/>
			<point x="519" y="379"/>
			<point x="519" y="293" type="curve"/>
			<point x="519" y="125" type="line" smooth="yes"/>
			<point x="519" y="27"/>
			<point x="469" y="-10"/>
		</contour>
		<contour>
			<point x="160" y="0" type="line"/>
			<point x="63" y="0" type="line"/>
			<point x="251" y="331" type="line"/>
			<point x="266" y="322" type="line"/>
		</contour>
	</outline>
</glyph>
<glyph name="quotesingle" format="2">
	<advance width="139"/>
	<unicode hex="0027"/>
	<outline>
		<contour>
			<point x="25" y="730" type="line"/>
			<point x="25" y="659" type="line"/>
			<point x="114" y="659" type="line"/>
			<point x="114" y="730" type="line"/>
		</contour>
		<contour>
			<point x="76" y="662" type="line"/>
			<point x="63" y="662" type="line"/>
			<point x="35" y="540" type="line"/>
			<point x="104" y="540" type="line"/>
		</contour>
	</outline>
</glyph>
<glyph name="parenleft" format="2">
	<advance width="149"/>
	<unicode hex="0028"/>
	<outline>
		<contour>
			<point x="30" y="613" type="curve"/>
			<point x="30" y="-13" type="line" smooth="yes"/>
			<point x="30" y="-99"/>
			<point x="70" y="-130"/>
			<point x="144" y="-130" type="curve"/>
			<point x="144" y="-62" type="line"/>
			<point x="112" y="-62"/>
			<point x="100" y="-51"/>
			<point x="100" y="21" type="curve"/>
			<point x="100" y="579" type="line"/>
			<point x="100" y="651"/>
			<point x="112" y="662"/>
			<point x="144" y="662" type="curve"/>
			<point x="144" y="730" type="line"/>
			<point x="70" y="730"/>
			<point x="30" y="699"/>
		</contour>
	</outline>
</glyph>
<glyph name="comma" format="2">
	<advance width="136"/>
	<unicode hex="002C"/>
	<outline>
		<contour>
			<point x="22" y="71" type="line"/>
			<point x="22" y="0" type="line"/>
			<point x="111" y="0" type="line"/>
			<point x="111" y="71" type="line"/>
		</contour>
		<contour>
			<point x="111" y="0" type="curve"/>
			<point x="92" y="1" type="line"/>
			<point x="95" y="-27"/>
			<point x="81" y="-60"/>
			<point x="20" y="-61" type="curve"/>
			<point x="24" y="-119" type="line"/>
			<point x="98" y="-125"/>
			<point x="112" y="-97"/>
		</contour>
	</outline>
</glyph>
<glyph name="period" format="2">
	<advance width="136"/>
	<unicode hex="002E"/>
	<outline>
		<contour>
			<point x="20" y="71" type="line"/>
			<point x="20" y="0" type="line"/>
			<point x="116" y="0" type="line"/>
			<point x="116" y="71" type="line"/>
		</contour>
	</outline>
</glyph>
<glyph name="three" format="2">
	<advance width="258"/>
	<unicode hex="0033"/>
	<outline>
		<contour>
			<point x="110" y="58" type="curve" smooth="yes"/>
			<point x="67" y="58"/>
			<point x="59" y="96"/>
			<point x="57" y="160" type="curve"/>
			<point x="54" y="278" type="line"/>
			<point x="40" y="278" type="line"/>
			<point x="37" y="157" type="line" smooth="yes"/>
			<point x="35" y="62"/>
			<point x="61" y="-10"/>
			<point x="114" y="-10" type="curve"/>
			<point x="188" y="-10"/>
			<point x="228" y="28"/>
			<point x="228" y="126" type="curve"/>
			<point x="228" y="225" type="line" smooth="yes"/>
			<point x="228" y="292"/>
			<point x="219" y="354"/>
			<point x="191" y="374" type="curve"/>
			<point x="142" y="368" type="line"/>
			<point x="141" y="376" type="line"/>
			<point x="194" y="386"/>
			<point x="221" y="422"/>
			<point x="221" y="515" type="curve"/>
			<point x="221" y="604" type="line" smooth="yes"/>
			<point x="221" y="711"/>
			<point x="192" y="740"/>
			<point x="132" y="740" type="curve"/>
			<point x="66" y="740"/>
			<point x="15" y="668"/>
			<point x="15" y="605" type="curve"/>
			<point x="15" y="561"/>
			<point x="22" y="506"/>
			<point x="41" y="460" type="curve"/>
			<point x="137" y="460" type="line"/>
			<point x="58" y="540"/>
			<point x="40" y="576"/>
			<point x="40" y="616" type="curve"/>
			<point x="40" y="650"/>
			<point x="54" y="672"/>
			<point x="108" y="672" type="curve"/>
			<point x="139" y="672"/>
			<point x="146" y="655"/>
			<point x="146" y="579" type="curve"/>
			<point x="146" y="455" type="line" smooth="yes"/>
			<point x="146" y="406"/>
			<point x="132" y="380"/>
			<point x="99" y="380" type="curve"/>
			<point x="51" y="380" type="line"/>
			<point x="51" y="360" type="line"/>
			<point x="99" y="360" type="line" smooth="yes"/>
			<point x="137" y="360"/>
			<point x="153" y="336"/>
			<point x="153" y="285" type="curve"/>
			<point x="153" y="151" type="line" smooth="yes"/>
			<point x="153" y="76"/>
			<point x="136" y="58"/>
		</contour>
	</outline>
</glyph>
<glyph name="four" format="2">
	<advance width="237"/>
	<unicode hex="0034"/>
	<anchor x="108" y="760" name="top"/>
	<outline>
		<contour>
			<point x="187" y="215" type="line"/>
			<point x="187" y="195" type="line"/>
			<point x="5" y="195" type="line"/>
			<point x="35" y="215" type="line"/>
		</contour>
		<contour>
			<point x="84" y="212" type="line"/>
			<point x="5" y="195" type="line"/>
			<point x="121" y="730" type="line"/>
			<point x="191" y="730" type="line"/>
			<point x="76" y="223" type="line"/>
		</contour>
		<contour>
			<point x="115" y="0" type="line"/>
			<point x="115" y="202" type="line"/>
			<point x="91" y="215" type="line"/>
			<point x="125" y="215"/>
			<point x="146" y="244"/>
			<point x="164" y="297" type="curve"/>
			<point x="184" y="356" type="line"/>
			<point x="195" y="356" type="line"/>
			<point x="185" y="215" type="line"/>
			<point x="237" y="215" type="line"/>
			<point x="237" y="205" type="line"/>
			<point x="204" y="197" type="line" smooth="yes"/>
			<point x="189" y="193"/>
			<point x="185" y="184"/>
			<point x="185" y="170" type="curve"/>
			<point x="185" y="170"/>
			<point x="185" y="0"/>
			<point x="185" y="0" type="curve"/>
		</contour>
	</outline>
</glyph>
<glyph name="six" format="2">
	<advance width="276"/>
	<unicode hex="0036"/>
	<anchor x="118" y="0" name="bottom"/>
	<outline>
		<contour>
			<point x="105" y="182" type="curve"/>
			<point x="105" y="141" type="line"/>
			<point x="105" y="69"/>
			<point x="125" y="58"/>
			<point x="149" y="58" type="curve"/>
			<point x="175" y="58"/>
			<point x="181" y="80"/>
			<point x="181" y="115" type="curve"/>
			<point x="181" y="290" type="line" smooth="yes"/>
			<point x="181" y="326"/>
			<point x="171" y="342"/>
			<point x="151" y="342" type="curve"/>
			<point x="129" y="342"/>
			<point x="105" y="274"/>
		</contour>
		<contour>
			<point x="105" y="615" type="curve"/>
			<point x="105" y="389" type="line"/>
			<point x="82" y="237" type="line"/>
			<point x="92" y="235" type="line"/>
			<point x="113" y="385"/>
			<point x="147" y="410"/>
			<point x="185" y="410" type="curve"/>
			<point x="226" y="410"/>
			<point x="256" y="379"/>
			<point x="256" y="329" type="curve"/>
			<point x="256" y="125" type="line" smooth="yes"/>
			<point x="256" y="27"/>
			<point x="202" y="-10"/>
			<point x="137" y="-10" type="curve"/>
			<point x="68" y="-10"/>
			<point x="30" y="21"/>
			<point x="30" y="107" type="curve"/>
			<point x="30" y="605" type="line" smooth="yes"/>
			<point x="30" y="703"/>
			<point x="79" y="740"/>
			<point x="137" y="740" type="curve"/>
			<point x="189" y="740"/>
			<point x="214" y="709"/>
			<point x="214" y="647" type="curve"/>
			<point x="214" y="596"/>
			<point x="212" y="526"/>
			<point x="194" y="425" type="curve"/>
			<point x="118" y="425" type="line"/>
			<point x="187" y="573"/>
			<point x="190" y="614"/>
			<point x="190" y="642" type="curve"/>
			<point x="190" y="664"/>
			<point x="175" y="672"/>
			<point x="137" y="672" type="curve"/>
			<point x="111" y="672"/>
			<point x="105" y="650"/>
		</contour>
	</outline>
</glyph>
<glyph name="equal" format="2">
	<advance width="298"/>
	<unicode hex="003D"/>
	<outline>
		<contour>
			<point x="268" y="244" type="line"/>
			<point x="30" y="224" type="line"/>
			<point x="30" y="289" type="line"/>
			<point x="268" y="257" type="line"/>
		</contour>
		<contour>
			<point x="268" y="372" type="line"/>
			<point x="30" y="404" type="line"/>
			<point x="30" y="417" type="line"/>
			<point x="268" y="437" type="line"/>
		</contour>
	</outline>
</glyph>
<glyph name="B" format="2">
	<advance width="289"/>
	<unicode hex="0042"/>
	<outline>
		<contour>
			<point x="30" y="730" type="line"/>
			<point x="105" y="730" type="line"/>
			<point x="105" y="0" type="line"/>
			<point x="30" y="0" type="line"/>
		</contour>
		<contour>
			<point x="71" y="376" type="line"/>
			<point x="124" y="399" type="line"/>
			<point x="162" y="416"/>
			<point x="171" y="440"/>
			<point x="171" y="475" type="curve"/>
			<point x="171" y="579" type="line" smooth="yes"/>
			<point x="171" y="644"/>
			<point x="156" y="662"/>
			<point x="113" y="662" type="curve"/>
			<point x="113" y="662"/>
			<point x="71" y="662"/>
			<point x="71" y="662" type="curve"/>
			<point x="71" y="730" type="line"/>
			<point x="120" y="730" type="line" smooth="yes"/>
			<point x="200" y="730"/>
			<point x="246" y="695"/>
			<point x="246" y="604" type="curve"/>
			<point x="246" y="535" type="line" smooth="yes"/>
			<point x="246" y="446"/>
			<point x="193" y="409"/>
			<point x="128" y="382" type="curve"/>
			<point x="78" y="361" type="line"/>
		</contour>
		<contour>
			<point x="103" y="358" type="curve"/>
			<point x="102" y="384" type="line"/>
			<point x="153" y="395" type="line"/>
			<point x="153" y="383" type="line"/>
			<point x="220" y="389" type="line"/>
			<point x="250" y="367"/>
			<point x="261" y="310"/>
			<point x="261" y="241" type="curve"/>
			<point x="261" y="126" type="line" smooth="yes"/>
			<point x="261" y="35"/>
			<point x="209" y="0"/>
			<point x="120" y="0" type="curve"/>
			<point x="71" y="0" type="line"/>
			<point x="71" y="68" type="line"/>
			<point x="113" y="68" type="line" smooth="yes"/>
			<point x="167" y="68"/>
			<point x="186" y="86"/>
			<point x="186" y="151" type="curve"/>
			<point x="186" y="303" type="line" smooth="yes"/>
			<point x="186" y="348"/>
			<point x="168" y="369"/>
			<point x="133" y="369" type="curve"/>
			<point x="121" y="369"/>
			<point x="112" y="364"/>
		</contour>
	</outline>
</glyph>
<glyph name="F" format="2">
	<advance width="213"/>
	<unicode hex="0046"/>
	<outline>
		<contour>
			<point x="105" y="730" type="line"/>
			<point x="105" y="0" type="line"/>
			<point x="30" y="0" type="line"/>
			<point x="30" y="730" type="line"/>
		</contour>
		<contour>
			<point x="82" y="336" type="line"/>
			<point x="82" y="358" type="line"/>
			<point x="176" y="358" type="line"/>
			<point x="176" y="336" type="line"/>
		</contour>
		<contour>
			<point x="203" y="665" type="line"/>
			<point x="41" y="665" type="line"/>
			<point x="41" y="730" type="line"/>
			<point x="203" y="730" type="line"/>
		</contour>
	</outline>
</glyph>
<glyph name="G" format="2">
	<advance width="263"/>
	<unicode hex="0047"/>
	<anchor x="137" y="760" name="top"/>
	<anchor x="132" y="0" name="bottom"/>
	<outline>
		<contour>
			<point x="200" y="642" type="curve" smooth="yes"/>
			<point x="200" y="664"/>
			<point x="184" y="672"/>
			<point x="142" y="672" type="curve"/>
			<point x="112" y="672"/>
			<point x="105" y="650"/>
			<point x="105" y="615" type="curve"/>
			<point x="105" y="141" type="line" smooth="yes"/>
			<point x="105" y="69"/>
			<point x="119" y="58"/>
			<point x="134" y="58" type="curve"/>
			<point x="156" y="58"/>
			<point x="167" y="90"/>
			<point x="167" y="160" type="curve"/>
			<point x="167" y="318" type="line"/>
			<point x="252" y="298" type="line"/>
			<point x="231" y="298"/>
			<point x="227" y="294"/>
			<point x="227" y="274" type="curve"/>
			<point x="227" y="-10" type="line"/>
			<point x="216" y="-10" type="line"/>
			<point x="190" y="107" type="line"/>
			<point x="180" y="107" type="line"/>
			<point x="168" y="28"/>
			<point x="143" y="-10"/>
			<point x="98" y="-10" type="curve"/>
			<point x="55" y="-10"/>
			<point x="30" y="21"/>
			<point x="30" y="107" type="curve"/>
			<point x="30" y="605" type="line" smooth="yes"/>
			<point x="30" y="703"/>
			<point x="81" y="740"/>
			<point x="142" y="740" type="curve"/>
			<point x="194" y="740"/>
			<point x="219" y="709"/>
			<point x="219" y="647" type="curve"/>
			<point x="219" y="596"/>
			<point x="217" y="526"/>
			<point x="199" y="425" type="curve"/>
			<point x="123" y="425" type="line"/>
			<point x="193" y="575"/>
			<point x="200" y="614"/>
		</contour>
		<contour>
			<point x="253" y="298" type="line"/>
			<point x="129" y="298" type="line"/>
			<point x="129" y="318" type="line"/>
			<point x="253" y="318" type="line"/>
		</contour>
	</outline>
</glyph>
<glyph name="H" format="2">
	<advance width="295"/>
	<unicode hex="0048"/>
	<outline>
		<contour>
			<point x="30" y="730" type="line"/>
			<point x="105" y="730" type="line"/>
			<point x="105" y="0" type="line"/>
			<point x="30" y="0" type="line"/>
		</contour>
		<contour>
			<point x="190" y="730" type="line"/>
			<point x="265" y="730" type="line"/>
			<point x="265" y="0" type="line"/>
			<point x="190" y="0" type="line"/>
		</contour>
		<contour>
			<point x="206" y="374" type="line"/>
			<point x="82" y="374" type="line"/>
			<point x="82" y="394" type="line"/>
			<point x="206" y="394" type="line"/>
		</contour>
	</outline>
</glyph>
<glyph name="K" format="2">
	<advance width="278"/>
	<unicode hex="004B"/>
	<outline>
		<contour>
			<point x="30" y="730" type="line"/>
			<point x="105" y="730" type="line"/>
			<point x="105" y="649" type="line"/>
			<point x="81" y="413" type="line"/>
			<point x="91" y="411" type="line"/>
			<point x="183" y="730" type="line"/>
			<point x="273" y="730" type="line"/>
			<point x="273" y="663" type="line"/>
			<point x="251" y="657" type="line" smooth="yes"/>
			<point x="196" y="642"/>
			<point x="177" y="580"/>
			<point x="139" y="481" type="curve"/>
			<point x="115" y="418"/>
			<point x="105" y="380"/>
			<point x="105" y="332" type="curve"/>
			<point x="105" y="0" type="line"/>
			<point x="30" y="0" type="line"/>
		</contour>
		<contour>
			<point x="105" y="372" type="curve"/>
			<point x="108" y="404" type="line"/>
			<point x="120" y="393" type="line"/>
			<point x="207" y="401" type="line"/>
			<point x="273" y="0" type="line"/>
			<point x="192" y="0" type="line"/>
			<point x="155" y="283" type="line" smooth="yes"/>
			<point x="145" y="361"/>
			<point x="135" y="377"/>
		</contour>
	</outline>
</glyph>
<glyph name="O" format="2">
	<advance width="286"/>
	<unicode hex="004F"/>
	<anchor x="147" y="760" name="top"/>
	<outline>
		<contour>
			<point x="142" y="672" type="curve" smooth="yes"/>
			<point x="112" y="672"/>
			<point x="105" y="650"/>
			<point x="105" y="615" type="curve"/>
			<point x="105" y="141" type="line" smooth="yes"/>
			<point x="105" y="69"/>
			<point x="125" y="58"/>
			<point x="149" y="58" type="curve"/>
			<point x="175" y="58"/>
			<point x="181" y="80"/>
			<point x="181" y="115" type="curve"/>
			<point x="181" y="589" type="line" smooth="yes"/>
			<point x="181" y="661"/>
			<point x="162" y="672"/>
		</contour>
		<contour>
			<point x="137" y="-10" type="curve" smooth="yes"/>
			<point x="68" y="-10"/>
			<point x="30" y="21"/>
			<point x="30" y="107" type="curve"/>
			<point x="30" y="605" type="line" smooth="yes"/>
			<point x="30" y="703"/>
			<point x="84" y="740"/>
			<point x="149" y="740" type="curve"/>
			<point x="219" y="740"/>
			<point x="256" y="709"/>
			<point x="256" y="623" type="curve"/>
			<point x="256" y="125" type="line" smooth="yes"/>
			<point x="256" y="27"/>
			<point x="202" y="-10"/>
		</contour>
	</outline>
</glyph>
<glyph name="Q" format="2">
	<advance width="298"/>
	<unicode hex="0051"/>
	<anchor x="147" y="760" name="top"/>
	<outline>
		<contour>
			<point x="142" y="672" type="curve" smooth="yes"/>
			<point x="112" y="672"/>
			<point x="105" y="650"/>
			<point x="105" y="615" type="curve"/>
			<point x="105" y="151" type="line" smooth="yes"/>
			<point x="105" y="79"/>
			<point x="125" y="68"/>
			<point x="149" y="68" type="curve"/>
			<point x="175" y="68"/>
			<point x="181" y="99"/>
			<point x="181" y="148" type="curve"/>
			<point x="181" y="589" type="line" smooth="yes"/>
			<point x="181" y="661"/>
			<point x="162" y="672"/>
		</contour>
		<contour>
			<point x="293" y="0" type="line"/>
			<point x="137" y="0" type="line"/>
			<point x="68" y="0"/>
			<point x="30" y="31"/>
			<point x="30" y="117" type="curve"/>
			<point x="30" y="605" type="line" smooth="yes"/>
			<point x="30" y="703"/>
			<point x="84" y="740"/>
			<point x="149" y="740" type="curve"/>
			<point x="219" y="740"/>
			<point x="256" y="709"/>
			<point x="256" y="623" type="curve"/>
			<point x="256" y="163" type="line" smooth="yes"/>
			<point x="256" y="86"/>
			<point x="218" y="34"/>
			<point x="163" y="27" type="curve"/>
			<point x="163" y="17" type="line"/>
			<point x="207" y="18"/>
			<point x="249" y="36"/>
			<point x="293" y="126" type="curve"/>
		</contour>
	</outline>
</glyph>
<glyph name="R" format="2">
	<advance width="286"/>
	<unicode hex="0052"/>
	<anchor x="137" y="760" name="top"/>
	<outline>
		<contour>
			<point x="30" y="730" type="line"/>
			<point x="105" y="730" type="line"/>
			<point x="105" y="0" type="line"/>
			<point x="30" y="0" type="line"/>
		</contour>
		<contour>
			<point x="71" y="276" type="line"/>
			<point x="124" y="299" type="line"/>
			<point x="169" y="318"/>
			<point x="181" y="340"/>
			<point x="181" y="375" type="curve"/>
			<point x="181" y="579" type="line" smooth="yes"/>
			<point x="181" y="644"/>
			<point x="163" y="662"/>
			<point x="113" y="662" type="curve"/>
			<point x="113" y="662"/>
			<point x="71" y="662"/>
			<point x="71" y="662" type="curve"/>
			<point x="71" y="730" type="line"/>
			<point x="120" y="730" type="line" smooth="yes"/>
			<point x="206" y="730"/>
			<point x="256" y="695"/>
			<point x="256" y="604" type="curve"/>
			<point x="256" y="435" type="line" smooth="yes"/>
			<point x="256" y="345"/>
			<point x="197" y="311"/>
			<point x="128" y="281" type="curve"/>
			<point x="78" y="259" type="line"/>
		</contour>
		<contour>
			<point x="102" y="284" type="line"/>
			<point x="153" y="298" type="line"/>
			<point x="154" y="281" type="line"/>
			<point x="215" y="289" type="line"/>
			<point x="271" y="0" type="line"/>
			<point x="195" y="0" type="line"/>
			<point x="157" y="240" type="line" smooth="yes"/>
			<point x="153" y="265"/>
			<point x="136" y="278"/>
			<point x="105" y="264" type="curve"/>
		</contour>
	</outline>
</glyph>
<glyph name="S" format="2">
	<advance width="243"/>
	<unicode hex="0053"/>
	<anchor x="127" y="750" name="top"/>
	<anchor x="118" y="0" name="bottom"/>
	<outline>
		<contour>
			<point x="110" y="-10" type="curve" smooth="yes"/>
			<point x="51" y="-10"/>
			<point x="23" y="21"/>
			<point x="23" y="83" type="curve"/>
			<point x="23" y="147"/>
			<point x="25" y="220"/>
			<point x="34" y="275" type="curve"/>
			<point x="106" y="275" type="line"/>
			<point x="61" y="189"/>
			<point x="42" y="127"/>
			<point x="42" y="95" type="curve"/>
			<point x="42" y="66"/>
			<point x="61" y="58"/>
			<point x="110" y="58" type="curve"/>
			<point x="143" y="58"/>
			<point x="151" y="78"/>
			<point x="151" y="104" type="curve"/>
			<point x="151" y="236"/>
			<point x="18" y="470"/>
			<point x="18" y="614" type="curve"/>
			<point x="18" y="703"/>
			<point x="71" y="740"/>
			<point x="134" y="740" type="curve"/>
			<point x="186" y="740"/>
			<point x="211" y="709"/>
			<point x="211" y="647" type="curve"/>
			<point x="211" y="609"/>
			<point x="211" y="533"/>
			<point x="200" y="465" type="curve"/>
			<point x="134" y="465" type="line"/>
			<point x="179" y="574"/>
			<point x="192" y="610"/>
			<point x="192" y="637" type="curve"/>
			<point x="192" y="664"/>
			<point x="176" y="672"/>
			<point x="134" y="672" type="curve"/>
			<point x="101" y="672"/>
			<point x="93" y="652"/>
			<point x="93" y="626" type="curve"/>
			<point x="93" y="513"/>
			<point x="226" y="229"/>
			<point x="226" y="113" type="curve"/>
			<point x="226" y="27"/>
			<point x="173" y="-10"/>
		</contour>
	</outline>
</glyph>
<glyph name="a" format="2">
	<advance width="297"/>
	<unicode hex="0061"/>
	<anchor x="136" y="640" name="top"/>
	<anchor x="238" y="0" name="bottom_right"/>
	<outline>
		<contour>
			<point x="91" y="-10" type="curve" smooth="yes"/>
			<point x="53" y="-10"/>
			<point x="33" y="13"/>
			<point x="33" y="61" type="curve" smooth="yes"/>
			<point x="33" y="130" type="line"/>
			<point x="33" y="211"/>
			<point x="75" y="243"/>
			<point x="154" y="317" type="curve"/>
			<point x="154" y="502" type="line"/>
			<point x="154" y="534"/>
			<point x="146" y="542"/>
			<point x="113" y="542" type="curve"/>
			<point x="61" y="542"/>
			<point x="48" y="520"/>
			<point x="48" y="485" type="curve"/>
			<point x="48" y="443"/>
			<point x="65" y="406"/>
			<point x="147" y="323" type="curve"/>
			<point x="51" y="323" type="line"/>
			<point x="31" y="371"/>
			<point x="25" y="428"/>
			<point x="25" y="474" type="curve"/>
			<point x="25" y="537"/>
			<point x="74" y="610"/>
			<point x="137" y="610" type="curve"/>
			<point x="195" y="610"/>
			<point x="224" y="579"/>
			<point x="224" y="528" type="curve" smooth="yes"/>
			<point x="224" y="118" type="line"/>
			<point x="224" y="64"/>
			<point x="234" y="58"/>
			<point x="245" y="58" type="curve"/>
			<point x="254" y="58"/>
			<point x="261" y="64"/>
			<point x="262" y="97" type="curve" smooth="yes"/>
			<point x="265" y="272" type="line"/>
			<point x="279" y="272" type="line"/>
			<point x="282" y="101" type="line"/>
			<point x="283" y="38"/>
			<point x="273" y="-10"/>
			<point x="226" y="-10" type="curve"/>
			<point x="185" y="-10"/>
			<point x="167" y="19"/>
			<point x="179" y="161" type="curve"/>
			<point x="169" y="163" type="line"/>
			<point x="154" y="14"/>
			<point x="129" y="-10"/>
		</contour>
		<contour>
			<point x="120" y="63" type="curve" smooth="yes"/>
			<point x="142" y="63"/>
			<point x="154" y="124"/>
			<point x="154" y="216" type="curve" smooth="yes"/>
			<point x="154" y="317" type="line"/>
			<point x="161" y="303" type="line"/>
			<point x="111" y="256"/>
			<point x="103" y="231"/>
			<point x="103" y="187" type="curve" smooth="yes"/>
			<point x="103" y="87" type="line"/>
			<point x="103" y="69"/>
			<point x="110" y="63"/>
		</contour>
	</outline>
</glyph>
<glyph name="b" format="2">
	<advance width="293"/>
	<unicode hex="0062"/>
	<outline>
		<contour>
			<point x="186" y="154" type="curve"/>
			<point x="186" y="490" type="line" smooth="yes"/>
			<point x="186" y="526"/>
			<point x="177" y="542"/>
			<point x="160" y="542" type="curve"/>
			<point x="138" y="542"/>
			<point x="115" y="474"/>
			<point x="115" y="382" type="curve"/>
			<point x="115" y="74" type="line"/>
			<point x="128" y="61"/>
			<point x="142" y="54"/>
			<point x="158" y="54" type="curve"/>
			<point x="177" y="54"/>
			<point x="186" y="68"/>
		</contour>
		<contour>
			<point x="258" y="529" type="curve"/>
			<point x="258" y="160" type="line"/>
			<point x="258" y="40"/>
			<point x="229" y="-10"/>
			<point x="165" y="-10" type="curve"/>
			<point x="125" y="-10"/>
			<point x="86" y="13"/>
			<point x="58" y="49" type="curve"/>
			<point x="49" y="47" type="line"/>
			<point x="43" y="0" type="line"/>
			<point x="25" y="0" type="line"/>
			<point x="45" y="164" type="line"/>
			<point x="45" y="730" type="line"/>
			<point x="114" y="730" type="line"/>
			<point x="114" y="589" type="line"/>
			<point x="91" y="437" type="line"/>
			<point x="101" y="435" type="line"/>
			<point x="122" y="585"/>
			<point x="156" y="610"/>
			<point x="194" y="610" type="curve"/>
			<point x="231" y="610"/>
			<point x="258" y="579"/>
		</contour>
	</outline>
</glyph>
<glyph name="c" format="2">
	<advance width="244"/>
	<unicode hex="0063"/>
	<anchor x="136" y="640" name="top"/>
	<anchor x="125" y="0" name="bottom"/>
	<outline>
		<contour>
			<point x="195" y="515" type="curve" smooth="yes"/>
			<point x="195" y="534"/>
			<point x="179" y="542"/>
			<point x="141" y="542" type="curve"/>
			<point x="111" y="542"/>
			<point x="105" y="520"/>
			<point x="105" y="484" type="curve"/>
			<point x="105" y="141" type="line" smooth="yes"/>
			<point x="105" y="69"/>
			<point x="126" y="58"/>
			<point x="149" y="58" type="curve"/>
			<point x="172" y="58"/>
			<point x="182" y="96"/>
			<point x="184" y="160" type="curve"/>
			<point x="187" y="278" type="line"/>
			<point x="201" y="278" type="line"/>
			<point x="204" y="157" type="line" smooth="yes"/>
			<point x="206" y="62"/>
			<point x="177" y="-10"/>
			<point x="117" y="-10" type="curve"/>
			<point x="63" y="-10"/>
			<point x="35" y="21"/>
			<point x="35" y="107" type="curve"/>
			<point x="35" y="474" type="line" smooth="yes"/>
			<point x="35" y="573"/>
			<point x="82" y="610"/>
			<point x="137" y="610" type="curve"/>
			<point x="189" y="610"/>
			<point x="214" y="579"/>
			<point x="214" y="516" type="curve"/>
			<point x="214" y="490"/>
			<point x="211" y="423"/>
			<point x="194" y="334" type="curve"/>
			<point x="118" y="334" type="line"/>
			<point x="178" y="451"/>
			<point x="195" y="489"/>
		</contour>
	</outline>
</glyph>
<glyph name="e" format="2">
	<advance width="260"/>
	<unicode hex="0065"/>
	<anchor x="133" y="640" name="top"/>
	<anchor x="165" y="0" name="bottom_right"/>
	<outline>
		<contour>
			<point x="165" y="332" type="line"/>
			<point x="165" y="459" type="line"/>
			<point x="165" y="532"/>
			<point x="154" y="542"/>
			<point x="134" y="542" type="curve"/>
			<point x="110" y="542"/>
			<point x="105" y="520"/>
			<point x="105" y="484" type="curve"/>
			<point x="105" y="141" type="line" smooth="yes"/>
			<point x="105" y="69"/>
			<point x="131" y="58"/>
			<point x="159" y="58" type="curve"/>
			<point x="189" y="58"/>
			<point x="202" y="96"/>
			<point x="204" y="160" type="curve"/>
			<point x="207" y="277" type="line"/>
			<point x="221" y="277" type="line"/>
			<point x="224" y="157" type="line" smooth="yes"/>
			<point x="226" y="62"/>
			<point x="194" y="-10"/>
			<point x="127" y="-10" type="curve"/>
			<point x="66" y="-10"/>
			<point x="35" y="21"/>
			<point x="35" y="107" type="curve"/>
			<point x="35" y="474" type="line" smooth="yes"/>
			<point x="35" y="573"/>
			<point x="81" y="610"/>
			<point x="141" y="610" type="curve"/>
			<point x="196" y="610"/>
			<point x="225" y="579"/>
			<point x="225" y="492" type="curve"/>
			<point x="225" y="332" type="line"/>
		</contour>
		<contour>
			<point x="205" y="332" type="line"/>
			<point x="81" y="332" type="line"/>
			<point x="81" y="346" type="line"/>
			<point x="205" y="346" type="line"/>
		</contour>
	</outline>
</glyph>
<glyph name="g" format="2">
	<advance width="281"/>
	<unicode hex="0067"/>
	<anchor x="136" y="640" name="top"/>
	<outline>
		<contour>
			<point x="125" y="532" type="curve" smooth="yes"/>
			<point x="103" y="532"/>
			<point x="98" y="510"/>
			<point x="98" y="475" type="curve"/>
			<point x="98" y="260" type="line" smooth="yes"/>
			<point x="98" y="188"/>
			<point x="116" y="177"/>
			<point x="137" y="177" type="curve"/>
			<point x="159" y="177"/>
			<point x="164" y="199"/>
			<point x="164" y="234" type="curve"/>
			<point x="164" y="449" type="line" smooth="yes"/>
			<point x="164" y="521"/>
			<point x="145" y="532"/>
		</contour>
		<contour>
			<point x="234" y="463" type="curve"/>
			<point x="234" y="247" type="line" smooth="yes"/>
			<point x="234" y="153"/>
			<point x="184" y="117"/>
			<point x="125" y="117" type="curve"/>
			<point x="62" y="117"/>
			<point x="28" y="151"/>
			<point x="28" y="234" type="curve"/>
			<point x="28" y="465" type="line" smooth="yes"/>
			<point x="28" y="563"/>
			<point x="78" y="600"/>
			<point x="137" y="600" type="curve"/>
			<point x="281" y="600" type="line"/>
			<point x="281" y="485" type="line"/>
			<point x="223" y="568"/>
			<point x="188" y="582"/>
			<point x="141" y="583" type="curve"/>
			<point x="141" y="571" type="line"/>
			<point x="196" y="564"/>
			<point x="234" y="527"/>
		</contour>
		<contour>
			<point x="67" y="136" type="curve"/>
			<point x="82" y="126" type="line"/>
			<point x="65" y="110"/>
			<point x="50" y="92"/>
			<point x="50" y="82" type="curve"/>
			<point x="50" y="73"/>
			<point x="56" y="68"/>
			<point x="75" y="68" type="curve"/>
			<point x="100" y="68"/>
			<point x="147" y="68"/>
			<point x="181" y="68" type="curve"/>
			<point x="243" y="68"/>
			<point x="272" y="47"/>
			<point x="272" y="6" type="curve"/>
			<point x="272" y="-47"/>
			<point x="176" y="-130"/>
			<point x="93" y="-130" type="curve"/>
			<point x="33" y="-130"/>
			<point x="9" y="-99"/>
			<point x="9" y="-69" type="curve"/>
			<point x="9" y="-33"/>
			<point x="31" y="-10"/>
			<point x="58" y="2" type="curve"/>
			<point x="92" y="3" type="line"/>
			<point x="72" y="-5"/>
			<point x="65" y="-17"/>
			<point x="65" y="-29" type="curve"/>
			<point x="65" y="-49"/>
			<point x="80" y="-66"/>
			<point x="158" y="-66" type="curve"/>
			<point x="204" y="-66"/>
			<point x="223" y="-58"/>
			<point x="223" y="-38" type="curve"/>
			<point x="223" y="-14"/>
			<point x="215" y="0"/>
			<point x="181" y="0" type="curve"/>
			<point x="154" y="0"/>
			<point x="119" y="0"/>
			<point x="86" y="0" type="curve"/>
			<point x="58" y="2" type="line"/>
			<point x="58" y="8" type="line"/>
			<point x="35" y="14"/>
			<point x="19" y="27"/>
			<point x="19" y="53" type="curve"/>
			<point x="19" y="88"/>
			<point x="51" y="114"/>
		</contour>
	</outline>
</glyph>
<glyph name="m" format="2">
	<advance width="406"/>
	<unicode hex="006D"/>
	<outline>
		<contour>
			<point x="228" y="533" type="curve"/>
			<point x="214" y="435" type="line"/>
			<point x="224" y="433" type="line"/>
			<point x="245" y="585"/>
			<point x="276" y="610"/>
			<point x="312" y="610" type="curve"/>
			<point x="346" y="610"/>
			<point x="371" y="579"/>
			<point x="371" y="529" type="curve"/>
			<point x="371" y="0" type="line"/>
			<point x="301" y="0" type="line"/>
			<point x="301" y="490" type="line" smooth="yes"/>
			<point x="301" y="526"/>
			<point x="297" y="542"/>
			<point x="282" y="542" type="curve"/>
			<point x="259" y="542"/>
			<point x="238" y="471"/>
			<point x="238" y="380" type="curve"/>
			<point x="238" y="0" type="line"/>
			<point x="168" y="0" type="line"/>
			<point x="168" y="490" type="line" smooth="yes"/>
			<point x="168" y="526"/>
			<point x="164" y="542"/>
			<point x="149" y="542" type="curve"/>
			<point x="126" y="542"/>
			<point x="105" y="471"/>
			<point x="105" y="380" type="curve"/>
			<point x="105" y="0" type="line"/>
			<point x="35" y="0" type="line"/>
			<point x="35" y="600" type="line"/>
			<point x="105" y="600" type="line"/>
			<point x="105" y="589" type="line"/>
			<point x="81" y="437" type="line"/>
			<point x="91" y="435" type="line"/>
			<point x="112" y="585"/>
			<point x="143" y="610"/>
			<point x="179" y="610" type="curve"/>
			<point x="211" y="610"/>
			<point x="235" y="583"/>
		</contour>
	</outline>
</glyph>
<glyph name="o" format="2">
	<advance width="276"/>
	<unicode hex="006F"/>
	<anchor x="143" y="640" name="top"/>
	<outline>
		<contour>
			<point x="132" y="542" type="curve" smooth="yes"/>
			<point x="110" y="542"/>
			<point x="105" y="520"/>
			<point x="105" y="485" type="curve"/>
			<point x="105" y="141" type="line" smooth="yes"/>
			<point x="105" y="69"/>
			<point x="123" y="58"/>
			<point x="144" y="58" type="curve"/>
			<point x="166" y="58"/>
			<point x="171" y="80"/>
			<point x="171" y="115" type="curve"/>
			<point x="171" y="459" type="line" smooth="yes"/>
			<point x="171" y="531"/>
			<point x="152" y="542"/>
		</contour>
		<contour>
			<point x="132" y="-10" type="curve" smooth="yes"/>
			<point x="69" y="-10"/>
			<point x="35" y="21"/>
			<point x="35" y="107" type="curve"/>
			<point x="35" y="475" type="line" smooth="yes"/>
			<point x="35" y="573"/>
			<point x="85" y="610"/>
			<point x="144" y="610" type="curve"/>
			<point x="208" y="610"/>
			<point x="241" y="579"/>
			<point x="241" y="493" type="curve"/>
			<point x="241" y="125" type="line" smooth="yes"/>
			<point x="241" y="27"/>
			<point x="191" y="-10"/>
		</contour>
	</outline>
</glyph>
<glyph name="r" format="2">
	<advance width="227"/>
	<unicode hex="0072"/>
	<anchor x="126" y="640" name="top"/>
	<outline>
		<contour>
			<point x="172" y="536" type="curve" smooth="yes"/>
			<point x="140" y="536"/>
			<point x="105" y="483"/>
			<point x="105" y="382" type="curve"/>
			<point x="105" y="0" type="line"/>
			<point x="35" y="0" type="line"/>
			<point x="35" y="600" type="line"/>
			<point x="104" y="600" type="line"/>
			<point x="104" y="589" type="line"/>
			<point x="82" y="437" type="line"/>
			<point x="92" y="435" type="line"/>
			<point x="113" y="585"/>
			<point x="138" y="610"/>
			<point x="172" y="610" type="curve"/>
			<point x="202" y="610"/>
			<point x="217" y="577"/>
			<point x="217" y="511" type="curve"/>
			<point x="217" y="485"/>
			<point x="214" y="418"/>
			<point x="197" y="329" type="curve"/>
			<point x="121" y="329" type="line"/>
			<point x="178" y="449"/>
			<point x="199" y="492"/>
			<point x="199" y="510" type="curve"/>
			<point x="199" y="528"/>
			<point x="190" y="536"/>
		</contour>
	</outline>
</glyph>
<glyph name="t" format="2">
	<advance width="230"/>
	<unicode hex="0074"/>
	<outline>
		<contour>
			<point x="208" y="549" type="line"/>
			<point x="121" y="549" type="line"/>
			<point x="121" y="141" type="line" smooth="yes"/>
			<point x="121" y="69"/>
			<point x="139" y="58"/>
			<point x="156" y="58" type="curve"/>
			<point x="180" y="58"/>
			<point x="188" y="83"/>
			<point x="190" y="150" type="curve"/>
			<point x="193" y="278" type="line"/>
			<point x="207" y="278" type="line"/>
			<point x="210" y="147" type="line" smooth="yes"/>
			<point x="212" y="58"/>
			<point x="185" y="-10"/>
			<point x="128" y="-10" type="curve"/>
			<point x="77" y="-10"/>
			<point x="51" y="21"/>
			<point x="51" y="107" type="curve"/>
			<point x="51" y="549" type="line"/>
			<point x="5" y="549" type="line"/>
			<point x="5" y="600" type="line"/>
			<point x="51" y="600" type="line"/>
			<point x="51" y="699" type="line"/>
			<point x="74" y="704"/>
			<point x="104" y="716"/>
			<point x="120" y="740" type="curve"/>
			<point x="131" y="737" type="line"/>
			<point x="110" y="608" type="line"/>
			<point x="115" y="600" type="line"/>
			<point x="208" y="600" type="line"/>
		</contour>
	</outline>
</glyph>
<glyph name="v" format="2">
	<advance width="241"/>
	<unicode hex="0076"/>
	<outline>
		<contour>
			<point x="-5" y="600" type="line"/>
			<point x="71" y="600" type="line"/>
			<point x="104" y="389" type="line"/>
			<point x="126" y="189" type="line"/>
			<point x="137" y="189" type="line"/>
			<point x="131" y="0" type="line"/>
			<point x="110" y="0" type="line"/>
		</contour>
		<contour>
			<point x="137" y="189" type="line"/>
			<point x="164" y="600" type="line"/>
			<point x="246" y="600" type="line"/>
			<point x="131" y="0" type="line"/>
			<point x="110" y="0" type="line"/>
		</contour>
	</outline>
</glyph>
<glyph name="w" format="2">
	<advance width="371"/>
	<unicode hex="0077"/>
	<outline>
		<contour>
			<point x="-5" y="600" type="line"/>
			<point x="71" y="600" type="line"/>
			<point x="101" y="389" type="line"/>
			<point x="111" y="189" type="line"/>
			<point x="122" y="189" type="line"/>
			<point x="123" y="0" type="line"/>
			<point x="95" y="0" type="line"/>
		</contour>
		<contour>
			<point x="122" y="189" type="line"/>
			<point x="168" y="600" type="line"/>
			<point x="191" y="600" type="line"/>
			<point x="123" y="0" type="line"/>
			<point x="95" y="0" type="line"/>
		</contour>
		<contour>
			<point x="180" y="600" type="line"/>
			<point x="211" y="600" type="line"/>
			<point x="243" y="389" type="line"/>
			<point x="266" y="189" type="line"/>
			<point x="277" y="189" type="line"/>
			<point x="273" y="0" type="line"/>
			<point x="245" y="0" type="line"/>
			<point x="178" y="385" type="line"/>
			<point x="153" y="385" type="line"/>
		</contour>
		<contour>
			<point x="277" y="189" type="line"/>
			<point x="294" y="600" type="line"/>
			<point x="376" y="600" type="line"/>
			<point x="273" y="0" type="line"/>
			<point x="245" y="0" type="line"/>
		</contour>
	</outline>
</glyph>
<glyph name="x" format="2">
	<advance width="260"/>
	<unicode hex="0078"/>
	<outline>
		<contour>
			<point x="115" y="270" type="line"/>
			<point x="84" y="0" type="line"/>
			<point x="0" y="0" type="line"/>
			<point x="116" y="363" type="line"/>
		</contour>
		<contour>
			<point x="148" y="139" type="line"/>
			<point x="124" y="270" type="line"/>
			<point x="115" y="270" type="line"/>
			<point x="4" y="600" type="line"/>
			<point x="83" y="600" type="line"/>
			<point x="116" y="477" type="line"/>
			<point x="140" y="371" type="line"/>
			<point x="151" y="371" type="line"/>
			<point x="260" y="0" type="line"/>
			<point x="181" y="0" type="line"/>
		</contour>
		<contour>
			<point x="151" y="371" type="line"/>
			<point x="174" y="600" type="line"/>
			<point x="258" y="600" type="line"/>
			<point x="147" y="277" type="line"/>
		</contour>
	</outline>
</glyph>
<glyph name="section" format="2">
	<advance width="308"/>
	<unicode hex="00A7"/>
	<anchor x="158" y="771" name="top"/>
	<anchor x="144" y="131" name="bottom"/>
	<outline>
		<contour>
			<point x="294" y="243" type="curve" smooth="yes"/>
			<point x="294" y="177"/>
			<point x="246" y="149"/>
			<point x="217" y="149" type="curve"/>
			<point x="189" y="149"/>
			<point x="173" y="161"/>
			<point x="139" y="201" type="curve"/>
			<point x="132" y="196" type="line"/>
			<point x="160" y="151"/>
			<point x="213" y="113"/>
			<point x="234" y="70" type="curve"/>
			<point x="248" y="42"/>
			<point x="257" y="16"/>
			<point x="257" y="-7" type="curve"/>
			<point x="256" y="-95"/>
			<point x="205" y="-130"/>
			<point x="145" y="-130" type="curve"/>
			<point x="93" y="-130"/>
			<point x="68" y="-100"/>
			<point x="68" y="-38" type="curve"/>
			<point x="68" y="-4"/>
			<point x="72" y="36"/>
			<point x="79" y="81" type="curve"/>
			<point x="140" y="81" type="line"/>
			<point x="102" y="3"/>
			<point x="87" y="-20"/>
			<point x="87" y="-37" type="curve"/>
			<point x="87" y="-55"/>
			<point x="103" y="-62"/>
			<point x="145" y="-62" type="curve"/>
			<point x="178" y="-62"/>
			<point x="186" y="-44"/>
			<point x="186" y="-18" type="curve"/>
			<point x="186" y="67"/>
			<point x="9" y="260"/>
			<point x="9" y="367" type="curve"/>
			<point x="9" y="433"/>
			<point x="57" y="461"/>
			<point x="86" y="461" type="curve"/>
			<point x="114" y="461"/>
			<point x="130" y="449"/>
			<point x="164" y="409" type="curve"/>
			<point x="171" y="414" type="line"/>
			<point x="143" y="459"/>
			<point x="90" y="497"/>
			<point x="69" y="540" type="curve"/>
			<point x="55" y="568"/>
			<point x="46" y="594"/>
			<point x="46" y="617" type="curve"/>
			<point x="46" y="706"/>
			<point x="97" y="741"/>
			<point x="157" y="741" type="curve"/>
			<point x="209" y="741"/>
			<point x="234" y="711"/>
			<point x="234" y="649" type="curve"/>
			<point x="234" y="615"/>
			<point x="230" y="575"/>
			<point x="223" y="530" type="curve"/>
			<point x="162" y="530" type="line"/>
			<point x="200" y="608"/>
			<point x="215" y="631"/>
			<point x="215" y="648" type="curve"/>
			<point x="215" y="666"/>
			<point x="199" y="673"/>
			<point x="157" y="673" type="curve"/>
			<point x="124" y="673"/>
			<point x="116" y="655"/>
			<point x="116" y="629" type="curve"/>
			<point x="116" y="544"/>
			<point x="294" y="350"/>
		</contour>
		<contour>
			<point x="79" y="376" type="curve" smooth="yes"/>
			<point x="79" y="339"/>
			<point x="99" y="289"/>
			<point x="116" y="261" type="curve"/>
			<point x="146" y="216"/>
			<point x="163" y="198"/>
			<point x="193" y="198" type="curve"/>
			<point x="218" y="198"/>
			<point x="224" y="214"/>
			<point x="224" y="234" type="curve"/>
			<point x="224" y="271"/>
			<point x="204" y="321"/>
			<point x="187" y="349" type="curve"/>
			<point x="157" y="394"/>
			<point x="140" y="412"/>
			<point x="110" y="412" type="curve"/>
			<point x="85" y="412"/>
			<point x="79" y="396"/>
		</contour>
	</outline>
</glyph>
<glyph name="macron" format="2">
	<advance width="250"/>
	<unicode hex="00AF"/>
	<anchor x="125" y="640" name="_top"/>
	<outline>
		<contour>
			<point x="27" y="710" type="line"/>
			<point x="27" y="664" type="line"/>
			<point x="223" y="664" type="line"/>
			<point x="223" y="710" type="line"/>
		</contour>
	</outline>
</glyph>
<glyph name="degree" format="2">
	<advance width="221"/>
	<unicode hex="00B0"/>
	<outline>
		<contour>
			<point x="110" y="539" type="curve" smooth="yes"/>
			<point x="165" y="539"/>
			<point x="211" y="584"/>
			<point x="211" y="639" type="curve"/>
			<point x="211" y="694"/>
			<point x="165" y="740"/>
			<point x="110" y="740" type="curve"/>
			<point x="55" y="740"/>
			<point x="10" y="694"/>
			<point x="10" y="639" type="curve"/>
			<point x="10" y="584"/>
			<point x="55" y="539"/>
		</contour>
		<contour>
			<point x="110" y="571" type="curve" smooth="yes"/>
			<point x="73" y="571"/>
			<point x="42" y="602"/>
			<point x="42" y="639" type="curve"/>
			<point x="42" y="678"/>
			<point x="73" y="709"/>
			<point x="110" y="709" type="curve"/>
			<point x="148" y="709"/>
			<point x="179" y="678"/>
			<point x="179" y="639" type="curve"/>
			<point x="179" y="602"/>
			<point x="148" y="571"/>
		</contour>
	</outline>
</glyph>
<glyph name="ordmasculine" format="2">
	<advance width="204"/>
	<unicode hex="00BA"/>
	<anchor x="129" y="640" name="top"/>
	<outline>
		<contour>
			<point x="97" y="686" type="curve" smooth="yes"/>
			<point x="80" y="686"/>
			<point x="76" y="668"/>
			<point x="76" y="640" type="curve"/>
			<point x="76" y="475" type="line" smooth="yes"/>
			<point x="76" y="417"/>
			<point x="90" y="408"/>
			<point x="107" y="408" type="curve"/>
			<point x="124" y="408"/>
			<point x="128" y="426"/>
			<point x="128" y="454" type="curve"/>
			<point x="128" y="619" type="line" smooth="yes"/>
			<point x="128" y="677"/>
			<point x="113" y="686"/>
		</contour>
		<contour>
			<point x="97" y="354" type="curve" smooth="yes"/>
			<point x="47" y="354"/>
			<point x="20" y="379"/>
			<point x="20" y="448" type="curve"/>
			<point x="20" y="632" type="line" smooth="yes"/>
			<point x="20" y="710"/>
			<point x="60" y="740"/>
			<point x="107" y="740" type="curve"/>
			<point x="158" y="740"/>
			<point x="184" y="715"/>
			<point x="184" y="646" type="curve"/>
			<point x="184" y="462" type="line" smooth="yes"/>
			<point x="184" y="384"/>
			<point x="144" y="354"/>
		</contour>
		<contour>
			<point x="184" y="294" type="line"/>
			<point x="20" y="294" type="line"/>
			<point x="20" y="314" type="line"/>
			<point x="184" y="314" type="line"/>
		</contour>
	</outline>
</glyph>
<glyph name="AE" format="2">
	<advance width="352"/>
	<unicode hex="00C6"/>
	<anchor x="501" y="0" name="bottom_right"/>
	<outline>
		<contour>
			<point x="278" y="0" type="line"/>
			<point x="204" y="0" type="line"/>
			<point x="157" y="370" type="line"/>
			<point x="138" y="570" type="line"/>
			<point x="127" y="570" type="line"/>
			<point x="111" y="628" type="line"/>
			<point x="67" y="730" type="line"/>
			<point x="166" y="730" type="line"/>
		</contour>
		<contour>
			<point x="127" y="570" type="line"/>
			<point x="90" y="0" type="line"/>
			<point x="0" y="0" type="line"/>
			<point x="128" y="730" type="line"/>
			<point x="156" y="730" type="line"/>
		</contour>
		<contour>
			<point x="180" y="205" type="line"/>
			<point x="86" y="205" type="line"/>
			<point x="86" y="225" type="line"/>
			<point x="180" y="225" type="line"/>
		</contour>
		<contour>
			<point x="143" y="665" type="line"/>
			<point x="143" y="730" type="line"/>
			<point x="327" y="730" type="line"/>
			<point x="327" y="665" type="line"/>
		</contour>
		<contour>
			<point x="300" y="374" type="line"/>
			<point x="205" y="374" type="line"/>
			<point x="205" y="396" type="line"/>
			<point x="300" y="396" type="line"/>
		</contour>
		<contour>
			<point x="215" y="0" type="line"/>
			<point x="215" y="65" type="line"/>
			<point x="337" y="65" type="line"/>
			<point x="337" y="0" type="line"/>
		</contour>
	</outline>
</glyph>
<glyph name="Oslash" format="2">
	<advance width="286"/>
	<unicode hex="00D8"/>
	<anchor x="147" y="760" name="top"/>
	<outline>
		<contour>
			<point x="286" y="730" type="line"/>
			<point x="22" y="0" type="line"/>
			<point x="0" y="0" type="line"/>
			<point x="264" y="730" type="line"/>
		</contour>
		<component base="O"/>
	</outline>
</glyph>
<glyph name="Thorn" format="2">
	<advance width="286"/>
	<unicode hex="00DE"/>
	<outline>
		<contour>
			<point x="30" y="730" type="line"/>
			<point x="105" y="730" type="line"/>
			<point x="105" y="0" type="line"/>
			<point x="30" y="0" type="line"/>
		</contour>
		<contour>
			<point x="62" y="178" type="line"/>
			<point x="120" y="178" type="line"/>
			<point x="169" y="178"/>
			<point x="181" y="200"/>
			<point x="181" y="235" type="curve"/>
			<point x="181" y="479" type="line" smooth="yes"/>
			<point x="181" y="544"/>
			<point x="163" y="562"/>
			<point x="113" y="562" type="curve"/>
			<point x="113" y="562"/>
			<point x="71" y="562"/>
			<point x="71" y="562" type="curve"/>
			<point x="71" y="630" type="line"/>
			<point x="120" y="630" type="line" smooth="yes"/>
			<point x="206" y="630"/>
			<point x="256" y="595"/>
			<point x="256" y="504" type="curve"/>
			<point x="256" y="245" type="line" smooth="yes"/>
			<point x="256" y="147"/>
			<point x="188" y="110"/>
			<point x="107" y="110" type="curve"/>
			<point x="107" y="110"/>
			<point x="62" y="110"/>
			<point x="62" y="110" type="curve"/>
		</contour>
	</outline>
</glyph>
<glyph name="eth" format="2">
	<advance width="283"/>
	<unicode hex="00F0"/>
	<anchor x="125" y="0" name="bottom"/>
	<outline>
		<contour>
			<point x="107" y="446" type="curve"/>
			<point x="107" y="141" type="line" smooth="yes"/>
			<point x="107" y="69"/>
			<point x="126" y="58"/>
			<point x="148" y="58" type="curve"/>
			<point x="172" y="58"/>
			<point x="178" y="80"/>
			<point x="178" y="115" type="curve"/>
			<point x="178" y="526" type="line"/>
			<point x="165" y="539"/>
			<point x="151" y="546"/>
			<point x="135" y="546" type="curve"/>
			<point x="116" y="546"/>
			<point x="107" y="532"/>
		</contour>
		<contour>
			<point x="35" y="107" type="curve"/>
			<point x="35" y="440" type="line"/>
			<point x="35" y="560"/>
			<point x="64" y="610"/>
			<point x="128" y="610" type="curve"/>
			<point x="153" y="610"/>
			<point x="175" y="597"/>
			<point x="197" y="577" type="curve"/>
			<point x="203" y="583" type="line"/>
			<point x="178" y="609" type="line"/>
			<point x="178" y="651"/>
			<point x="132" y="701"/>
			<point x="68" y="723" type="curve"/>
			<point x="68" y="730" type="line"/>
			<point x="156" y="730" type="line"/>
			<point x="212" y="710"/>
			<point x="248" y="641"/>
			<point x="248" y="561" type="curve"/>
			<point x="248" y="125" type="line" smooth="yes"/>
			<point x="248" y="27"/>
			<point x="197" y="-10"/>
			<point x="136" y="-10" type="curve"/>
			<point x="71" y="-10"/>
			<point x="35" y="21"/>
		</contour>
		<contour>
			<point x="260" y="706" type="line"/>
			<point x="72" y="627" type="line"/>
			<point x="72" y="646" type="line"/>
			<point x="260" y="725" type="line"/>
		</contour>
	</outline>
</glyph>
<glyph name="oslash" format="2">
	<advance width="276"/>
	<unicode hex="00F8"/>
	<anchor x="143" y="640" name="top"/>
	<outline>
		<contour>
			<point x="276" y="600" type="line"/>
			<point x="22" y="0" type="line"/>
			<point x="0" y="0" type="line"/>
			<point x="254" y="600" type="line"/>
		</contour>
		<component base="o"/>
	</outline>
</glyph>
<glyph name="thorn" format="2">
	<advance width="283"/>
	<unicode hex="00FE"/>
	<outline>
		<contour>
			<point x="176" y="154" type="curve"/>
			<point x="176" y="490" type="line" smooth="yes"/>
			<point x="176" y="526"/>
			<point x="167" y="542"/>
			<point x="150" y="542" type="curve"/>
			<point x="128" y="542"/>
			<point x="105" y="474"/>
			<point x="105" y="382" type="curve"/>
			<point x="105" y="74" type="line"/>
			<point x="118" y="61"/>
			<point x="132" y="54"/>
			<point x="148" y="54" type="curve"/>
			<point x="167" y="54"/>
			<point x="176" y="68"/>
		</contour>
		<contour>
			<point x="248" y="529" type="curve"/>
			<point x="248" y="160" type="line"/>
			<point x="248" y="40"/>
			<point x="219" y="-10"/>
			<point x="155" y="-10" type="curve"/>
			<point x="130" y="-10"/>
			<point x="108" y="3"/>
			<point x="86" y="23" type="curve"/>
			<point x="80" y="17" type="line"/>
			<point x="105" y="-9" type="line"/>
			<point x="105" y="-130" type="line"/>
			<point x="35" y="-130" type="line"/>
			<point x="35" y="730" type="line"/>
			<point x="104" y="730" type="line"/>
			<point x="104" y="589" type="line"/>
			<point x="81" y="437" type="line"/>
			<point x="91" y="435" type="line"/>
			<point x="112" y="585"/>
			<point x="146" y="610"/>
			<point x="184" y="610" type="curve"/>
			<point x="221" y="610"/>
			<point x="248" y="579"/>
		</contour>
	</outline>
</glyph>
<glyph name="aogonek" format="2">
	<advance width="297"/>
	<unicode hex="0105"/>
	<anchor x="136" y="640" name="top"/>
	<anchor x="238" y="0" name="bottom_right"/>
	<outline>
		<contour>
			<point x="242" y="0" type="line"/>
			<point x="226" y="-19" type="line"/>
			<point x="220" y="-5" type="line"/>
		</contour>
		<component base="a"/>
		<component base="ogonek" xOffset="131"/>
	</outline>
</glyph>
<glyph name="iogonek" format="2">
	<advance width="140"/>
	<unicode hex="012F"/>
	<outline>
		<contour>
			<point x="17" y="730" type="line"/>
			<point x="17" y="679" type="line"/>
			<point x="123" y="679" type="line"/>
			<point x="123" y="730" type="line"/>
		</contour>
		<contour>
			<point x="35" y="600" type="line"/>
			<point x="105" y="600" type="line"/>
			<point x="105" y="0" type="line"/>
			<point x="35" y="0" type="line"/>
		</contour>
		<contour>
			<point x="79" y="-130" type="curve" smooth="yes"/>
			<point x="47" y="-130"/>
			<point x="22" y="-109"/>
			<point x="22" y="-71" type="curve"/>
			<point x="22" y="-46"/>
			<point x="34" y="-27"/>
			<point x="56" y="0" type="curve"/>
			<point x="70" y="0" type="line"/>
			<point x="54" y="-23"/>
			<point x="46" y="-39"/>
			<point x="46" y="-52" type="curve"/>
			<point x="46" y="-67"/>
			<point x="53" y="-72"/>
			<point x="65" y="-72" type="curve"/>
			<point x="81" y="-72"/>
			<point x="104" y="-60"/>
			<point x="119" y="-49" type="curve"/>
			<point x="122" y="-124" type="line"/>
			<point x="110" y="-128"/>
			<point x="95" y="-130"/>
		</contour>
	</outline>
</glyph>
<glyph name="dotlessi" format="2">
	<advance width="140"/>
	<unicode hex="0131"/>
	<anchor x="75" y="637" name="top"/>
	<outline>
		<contour>
			<point x="35" y="600" type="line"/>
			<point x="105" y="600" type="line"/>
			<point x="105" y="0" type="line"/>
			<point x="35" y="0" type="line"/>
		</contour>
	</outline>
</glyph>
<glyph name="eng" format="2">
	<advance width="283"/>
	<unicode hex="014B"/>
	<anchor x="146" y="640" name="top"/>
	<anchor x="142" y="0" name="bottom"/>
	<outline>
		<contour>
			<point x="248" y="139" type="line" smooth="yes"/>
			<point x="248" y="-8"/>
			<point x="165" y="-130"/>
			<point x="104" y="-130" type="curve" smooth="yes"/>
			<point x="84" y="-130" type="line"/>
			<point x="84" y="-53" type="line"/>
			<point x="103" y="-55"/>
			<point x="117" y="-57"/>
			<point x="140" y="-57" type="curve"/>
			<point x="163" y="-57"/>
			<point x="178" y="-49"/>
			<point x="178" y="-19" type="curve" smooth="yes"/>
			<point x="178" y="490" type="line" smooth="yes"/>
			<point x="178" y="526"/>
			<point x="173" y="542"/>
			<point x="154" y="542" type="curve"/>
			<point x="126" y="542"/>
			<point x="105" y="473"/>
			<point x="105" y="380" type="curve"/>
			<point x="105" y="0" type="line"/>
			<point x="35" y="0" type="line"/>
			<point x="35" y="600" type="line"/>
			<point x="105" y="600" type="line"/>
			<point x="105" y="589" type="line"/>
			<point x="81" y="437" type="line"/>
			<point x="91" y="435" type="line"/>
			<point x="112" y="585"/>
			<point x="146" y="610"/>
			<point x="184" y="610" type="curve"/>
			<point x="221" y="610"/>
			<point x="248" y="579"/>
			<point x="248" y="529" type="curve"/>
		</contour>
	</outline>
</glyph>
<glyph name="oe" format="2">
	<advance width="396"/>
	<unicode hex="0153"/>
	<outline>
		<contour>
			<point x="132" y="542" type="curve" smooth="yes"/>
			<point x="110" y="542"/>
			<point x="105" y="520"/>
			<point x="105" y="485" type="curve"/>
			<point x="105" y="141" type="line" smooth="yes"/>
			<point x="105" y="69"/>
			<point x="123" y="58"/>
			<point x="144" y="58" type="curve"/>
			<point x="166" y="58"/>
			<point x="171" y="80"/>
			<point x="171" y="115" type="curve"/>
			<point x="171" y="459" type="line" smooth="yes"/>
			<point x="171" y="531"/>
			<point x="152" y="542"/>
		</contour>
		<contour>
			<point x="119" y="-10" type="curve" smooth="yes"/>
			<point x="69" y="-10"/>
			<point x="35" y="21"/>
			<point x="35" y="107" type="curve"/>
			<point x="35" y="475" type="line" smooth="yes"/>
			<point x="35" y="573"/>
			<point x="85" y="610"/>
			<point x="144" y="610" type="curve"/>
			<point x="192" y="610"/>
			<point x="217" y="580"/>
			<point x="217" y="493" type="curve"/>
			<point x="217" y="475" type="line"/>
			<point x="226" y="475" type="line"/>
			<point x="186" y="125" type="line"/>
			<point x="186" y="27"/>
			<point x="161" y="-10"/>
		</contour>
		<contour>
			<point x="301" y="332" type="line"/>
			<point x="301" y="460" type="line"/>
			<point x="301" y="532"/>
			<point x="290" y="542"/>
			<point x="270" y="542" type="curve"/>
			<point x="246" y="542"/>
			<point x="241" y="520"/>
			<point x="241" y="485" type="curve"/>
			<point x="241" y="141" type="line" smooth="yes"/>
			<point x="241" y="69"/>
			<point x="267" y="58"/>
			<point x="295" y="58" type="curve"/>
			<point x="325" y="58"/>
			<point x="338" y="96"/>
			<point x="340" y="160" type="curve"/>
			<point x="343" y="277" type="line"/>
			<point x="357" y="277" type="line"/>
			<point x="360" y="157" type="line" smooth="yes"/>
			<point x="362" y="62"/>
			<point x="330" y="-10"/>
			<point x="263" y="-10" type="curve"/>
			<point x="218" y="-10"/>
			<point x="195" y="19"/>
			<point x="195" y="107" type="curve"/>
			<point x="195" y="125" type="line"/>
			<point x="186" y="125" type="line"/>
			<point x="226" y="475" type="line"/>
			<point x="226" y="573"/>
			<point x="248" y="610"/>
			<point x="290" y="610" type="curve"/>
			<point x="332" y="610"/>
			<point x="361" y="579"/>
			<point x="361" y="493" type="curve"/>
			<point x="361" y="332" type="line"/>
		</contour>
		<contour>
			<point x="340" y="332" type="line"/>
			<point x="216" y="332" type="line"/>
			<point x="216" y="346" type="line"/>
			<point x="340" y="346" type="line"/>
		</contour>
	</outline>
</glyph>
<glyph name="tcaron" format="2">
	<advance width="231"/>
	<unicode hex="0165"/>
	<anchor x="128" y="720" name="_top"/>
	<outline>
		<contour>
			<point x="211" y="720" type="curve"/>
			<point x="211" y="730" type="line"/>
			<point x="148" y="730" type="line"/>
			<point x="152" y="719" type="line" smooth="yes"/>
			<point x="164" y="685"/>
			<point x="162" y="655"/>
			<point x="143" y="626" type="curve"/>
			<point x="148" y="621" type="line"/>
			<point x="191" y="657"/>
			<point x="211" y="689"/>
		</contour>
		<component base="t"/>
	</outline>
</glyph>
<glyph name="Tbar" format="2">
	<advance width="251"/>
	<unicode hex="0166"/>
	<outline>
		<contour>
			<point x="237" y="354" type="line"/>
			<point x="15" y="354" type="line"/>
			<point x="15" y="374" type="line"/>
			<point x="237" y="374" type="line"/>
		</contour>
		<component base="T"/>
	</outline>
</glyph>
<glyph name="Uogonek" format="2">
	<advance width="286"/>
	<unicode hex="0172"/>
	<anchor x="144" y="760" name="top"/>
	<anchor x="125" y="0" name="bottom"/>
	<outline>
		<contour>
			<point x="150" y="-2" type="line"/>
			<point x="134" y="-21" type="line"/>
			<point x="128" y="-7" type="line"/>
		</contour>
		<component base="U"/>
		<component base="ogonek" xOffset="39"/>
	</outline>
</glyph>
<glyph name="uni0237" format="2">
	<advance width="140"/>
	<unicode hex="0237"/>
	<outline>
		<contour>
			<point x="35" y="-29" type="curve"/>
			<point x="35" y="600" type="line"/>
			<point x="105" y="600" type="line"/>
			<point x="105" y="137" type="line" smooth="yes"/>
			<point x="105" y="-22"/>
			<point x="13" y="-130"/>
			<point x="-76" y="-130" type="curve"/>
			<point x="-89" y="-130" type="line"/>
			<point x="-89" y="-43" type="line"/>
			<point x="-71" y="-51"/>
			<point x="-45" y="-57"/>
			<point x="-13" y="-57" type="curve"/>
			<point x="16" y="-57"/>
			<point x="35" y="-51"/>
		</contour>
	</outline>
</glyph>
<glyph name="caron" format="2">
	<advance width="250"/>
	<unicode hex="02C7"/>
	<anchor x="125" y="640" name="_top"/>
	<outline>
		<contour>
			<point x="129" y="691" type="curve"/>
			<point x="119" y="691" type="line"/>
			<point x="117" y="636" type="line"/>
			<point x="161" y="636" type="line"/>
			<point x="161" y="656" type="line" smooth="yes"/>
			<point x="161" y="697"/>
			<point x="182" y="719"/>
			<point x="225" y="724" type="curve"/>
			<point x="225" y="730" type="line"/>
			<point x="156" y="730"/>
			<point x="129" y="714"/>
		</contour>
		<contour>
			<point x="132" y="691" type="line"/>
			<point x="122" y="691" type="line"/>
			<point x="122" y="714"/>
			<point x="95" y="730"/>
			<point x="26" y="730" type="curve"/>
			<point x="26" y="724" type="line"/>
			<point x="69" y="719"/>
			<point x="90" y="697"/>
			<point x="90" y="656" type="curve"/>
			<point x="90" y="636" type="line"/>
			<point x="134" y="636" type="line"/>
		</contour>
	</outline>
</glyph>
<glyph name="breve" format="2">
	<advance width="250"/>
	<unicode hex="02D8"/>
	<anchor x="125" y="640" name="_top"/>
	<outline>
		<contour>
			<point x="125" y="684" type="curve" smooth="yes"/>
			<point x="80" y="684"/>
			<point x="57" y="694"/>
			<point x="51" y="730" type="curve"/>
			<point x="45" y="730" type="line"/>
			<point x="46" y="657"/>
			<point x="72" y="636"/>
			<point x="125" y="636" type="curve"/>
			<point x="178" y="636"/>
			<point x="204" y="657"/>
			<point x="205" y="730" type="curve"/>
			<point x="199" y="730" type="line"/>
			<point x="193" y="694"/>
			<point x="170" y="684"/>
		</contour>
	</outline>
</glyph>
<glyph name="dotaccent" format="2">
	<advance width="250"/>
	<unicode hex="02D9"/>
	<anchor x="125" y="640" name="_top"/>
	<outline>
		<contour>
			<point x="72" y="730" type="line"/>
			<point x="72" y="679" type="line"/>
			<point x="178" y="679" type="line"/>
			<point x="178" y="730" type="line"/>
		</contour>
	</outline>
</glyph>
<glyph name="ogonek" format="2">
	<advance width="250"/>
	<unicode hex="02DB"/>
	<anchor x="118" y="0" name="_bottom"/>
	<anchor x="125" y="0" name="_bottom_right"/>
	<outline>
		<contour>
			<point x="91" y="-130" type="curve" smooth="yes"/>
			<point x="70" y="-130"/>
			<point x="48" y="-116"/>
			<point x="48" y="-88" type="curve"/>
			<point x="48" y="-59"/>
			<point x="65" y="-38"/>
			<point x="102" y="-10" type="curve"/>
			<point x="96" y="0" type="line"/>
			<point x="125" y="0" type="line"/>
			<point x="104" y="-24"/>
			<point x="94" y="-40"/>
			<point x="94" y="-54" type="curve"/>
			<point x="94" y="-70"/>
			<point x="102" y="-75"/>
			<point x="115" y="-75" type="curve"/>
			<point x="127" y="-75"/>
			<point x="140" y="-71"/>
			<point x="147" y="-67" type="curve"/>
			<point x="152" y="-72" type="line"/>
			<point x="139" y="-99"/>
			<point x="115" y="-130"/>
		</contour>
	</outline>
</glyph>
<glyph name="acutecomb" format="2">
	<advance width="250"/>
	<unicode hex="0301"/>
	<anchor x="136" y="640" name="_top"/>
	<outline>
		<contour>
			<point x="214" y="720" type="curve"/>
			<point x="214" y="730" type="line"/>
			<point x="149" y="730" type="line"/>
			<point x="151" y="720" type="line" smooth="yes"/>
			<point x="158" y="685"/>
			<point x="128" y="652"/>
			<point x="64" y="642" type="curve"/>
			<point x="64" y="636" type="line"/>
			<point x="173" y="637"/>
			<point x="214" y="664"/>
		</contour>
	</outline>
</glyph>
<glyph name="uni0307" format="2">
	<advance width="250"/>
	<unicode hex="0307"/>
	<anchor x="125" y="640" name="_top"/>
	<outline>
		<contour>
			<point x="72" y="713" type="line"/>
			<point x="72" y="662" type="line"/>
			<point x="178" y="662" type="line"/>
			<point x="178" y="713" type="line"/>
		</contour>
	</outline>
</glyph>
<glyph name="uni030A" format="2">
	<advance width="250"/>
	<unicode hex="030A"/>
	<anchor x="125" y="640" name="_top"/>
	<outline>
		<contour>
			<point x="125" y="663" type="curve" smooth="yes"/>
			<point x="108" y="663"/>
			<point x="99" y="674"/>
			<point x="99" y="690" type="curve"/>
			<point x="99" y="706"/>
			<point x="108" y="717"/>
			<point x="125" y="717" type="curve"/>
			<point x="142" y="717"/>
			<point x="151" y="706"/>
			<point x="151" y="690" type="curve"/>
			<point x="151" y="674"/>
			<point x="142" y="663"/>
		</contour>
		<contour>
			<point x="125" y="636" type="curve" smooth="yes"/>
			<point x="171" y="636"/>
			<point x="189" y="654"/>
			<point x="189" y="690" type="curve"/>
			<point x="189" y="726"/>
			<point x="171" y="744"/>
			<point x="125" y="744" type="curve"/>
			<point x="79" y="744"/>
			<point x="61" y="726"/>
			<point x="61" y="690" type="curve"/>
			<point x="61" y="654"/>
			<point x="79" y="636"/>
		</contour>
	</outline>
</glyph>
<glyph name="uni0326" format="2">
	<advance width="250"/>
	<unicode hex="0326"/>
	<anchor x="125" y="0" name="_bottom"/>
	<outline>
		<contour>
			<point x="86" y="-19" type="line"/>
			<point x="86" y="-66" type="line"/>
			<point x="165" y="-66" type="line"/>
			<point x="165" y="-19" type="line"/>
		</contour>
		<contour>
			<point x="165" y="-66" type="curve"/>
			<point x="146" y="-65" type="line"/>
			<point x="149.529" y="-83.819"/>
			<point x="137.004" y="-90"/>
			<point x="84" y="-91" type="curve"/>
			<point x="88" y="-129" type="line"/>
			<point x="153.475" y="-134.309"/>
			<point x="166.068" y="-118.321"/>
		</contour>
	</outline>
</glyph>
<glyph name="uni0327" format="2">
	<advance width="250"/>
	<unicode hex="0327"/>
	<anchor x="125" y="0" name="_bottom"/>
	<outline>
		<contour>
			<point x="133" y="-130" type="curve" smooth="yes"/>
			<point x="102" y="-130"/>
			<point x="86" y="-109"/>
			<point x="77" y="-92" type="curve"/>
			<point x="81" y="-87" type="line"/>
			<point x="89" y="-93"/>
			<point x="95" y="-97"/>
			<point x="111" y="-97" type="curve"/>
			<point x="127" y="-97"/>
			<point x="135" y="-85"/>
			<point x="135" y="-74" type="curve"/>
			<point x="135" y="-61"/>
			<point x="129" y="-53"/>
			<point x="119" y="-53" type="curve"/>
			<point x="111" y="-53"/>
			<point x="107" y="-56"/>
			<point x="100" y="-62" type="curve"/>
			<point x="94" y="-57" type="line"/>
			<point x="117" y="-12" type="line"/>
			<point x="97" y="4" type="line"/>
			<point x="140" y="4" type="line"/>
			<point x="120" y="-35" type="line"/>
			<point x="124" y="-38" type="line"/>
			<point x="130" y="-36"/>
			<point x="137" y="-35"/>
			<point x="143" y="-35" type="curve"/>
			<point x="166" y="-35"/>
			<point x="185" y="-47"/>
			<point x="185" y="-75" type="curve"/>
			<point x="185" y="-107"/>
			<point x="161" y="-130"/>
		</contour>
	</outline>
</glyph>
<glyph name="dieresistonos" format="2">
	<advance width="250"/>
	<unicode hex="0385"/>
	<anchor x="125" y="640" name="_top"/>
	<outline>
		<contour>
			<point x="-13" y="710" type="line"/>
			<point x="-13" y="664" type="line"/>
			<point x="73" y="664" type="line"/>
			<point x="73" y="710" type="line"/>
		</contour>
		<contour>
			<point x="177" y="710" type="line"/>
			<point x="177" y="664" type="line"/>
			<point x="263" y="664" type="line"/>
			<point x="263" y="710" type="line"/>
		</contour>
		<component base="tonos" xOffset="51"/>
	</outline>
</glyph>
<glyph name="Zeta" format="2">
	<advance width="226"/>
	<unicode hex="0396"/>
	<outline>
		<contour>
			<point x="122" y="668" type="line"/>
			<point x="209" y="730" type="line"/>
			<point x="84" y="73" type="line"/>
			<point x="92" y="62" type="line"/>
			<point x="5" y="0" type="line"/>
			<point x="130" y="657" type="line"/>
		</contour>
		<contour>
			<point x="28" y="665" type="line"/>
			<point x="28" y="730" type="line"/>
			<point x="209" y="730" type="line"/>
			<point x="179" y="665" type="line"/>
		</contour>
		<contour>
			<point x="6" y="0" type="line"/>
			<point x="36" y="65" type="line"/>
			<point x="217" y="65" type="line"/>
			<point x="217" y="0" type="line"/>
		</contour>
	</outline>
</glyph>
<glyph name="Rho" format="2">
	<advance width="286"/>
	<unicode hex="03A1"/>
	<outline>
		<contour>
			<point x="62" y="278" type="line"/>
			<point x="62" y="210" type="line"/>
			<point x="62" y="210"/>
			<point x="107" y="210"/>
			<point x="107" y="210" type="curve"/>
			<point x="188" y="210"/>
			<point x="256" y="247"/>
			<point x="256" y="345" type="curve"/>
			<point x="256" y="604" type="line" smooth="yes"/>
			<point x="256" y="695"/>
			<point x="206" y="730"/>
			<point x="120" y="730" type="curve"/>
			<point x="71" y="730" type="line"/>
			<point x="71" y="662" type="line"/>
			<point x="71" y="662"/>
			<point x="113" y="662"/>
			<point x="113" y="662" type="curve"/>
			<point x="163" y="662"/>
			<point x="181" y="644"/>
			<point x="181" y="579" type="curve"/>
			<point x="181" y="335" type="line" smooth="yes"/>
			<point x="181" y="300"/>
			<point x="169" y="278"/>
			<point x="120" y="278" type="curve"/>
		</contour>
		<contour>
			<point x="30" y="730" type="line"/>
			<point x="30" y="0" type="line"/>
			<point x="105" y="0" type="line"/>
			<point x="105" y="730" type="line"/>
		</contour>
	</outline>
</glyph>
<glyph name="Sigma" format="2">
	<advance width="243"/>
	<unicode hex="03A3"/>
	<outline>
		<contour>
			<point x="133" y="359" type="line"/>
			<point x="20" y="730" type="line"/>
			<point x="101" y="668" type="line"/>
			<point x="93" y="657" type="line"/>
			<point x="203" y="377" type="line"/>
		</contour>
		<contour>
			<point x="60" y="665" type="line"/>
			<point x="20" y="730" type="line"/>
			<point x="221" y="730" type="line"/>
			<point x="221" y="665" type="line"/>
		</contour>
		<contour>
			<point x="30" y="0" type="line"/>
			<point x="85" y="65" type="line"/>
			<point x="228" y="65" type="line"/>
			<point x="228" y="0" type="line"/>
		</contour>
		<contour>
			<point x="59" y="0" type="line"/>
			<point x="12" y="0" type="line"/>
			<point x="131" y="389" type="line"/>
			<point x="203" y="377" type="line"/>
			<point x="85" y="74" type="line"/>
			<point x="97" y="59" type="line"/>
		</contour>
	</outline>
</glyph>
<glyph name="alpha" format="2">
	<advance width="297"/>
	<unicode hex="03B1"/>
	<anchor x="136" y="640" name="top"/>
	<anchor x="238" y="0" name="bottom_right"/>
	<outline>
		<contour>
			<point x="33" y="440" type="line" smooth="yes"/>
			<point x="33" y="560"/>
			<point x="60" y="610"/>
			<point x="124" y="610" type="curve" smooth="yes"/>
			<point x="164" y="610"/>
			<point x="193" y="587"/>
			<point x="211" y="551" type="curve"/>
			<point x="220" y="553" type="line"/>
			<point x="226" y="600" type="line"/>
			<point x="244" y="600" type="line"/>
			<point x="224" y="436" type="line"/>
			<point x="224" y="118" type="line" smooth="yes"/>
			<point x="224" y="64"/>
			<point x="234" y="58"/>
			<point x="245" y="58" type="curve" smooth="yes"/>
			<point x="254" y="58"/>
			<point x="261" y="64"/>
			<point x="262" y="97" type="curve" smooth="yes"/>
			<point x="265" y="272" type="line"/>
			<point x="279" y="272" type="line"/>
			<point x="282" y="101" type="line" smooth="yes"/>
			<point x="283" y="38"/>
			<point x="273" y="-10"/>
			<point x="226" y="-10" type="curve" smooth="yes"/>
			<point x="185" y="-10"/>
			<point x="167" y="19"/>
			<point x="179" y="161" type="curve"/>
			<point x="169" y="163" type="line"/>
			<point x="154" y="14"/>
			<point x="129" y="-10"/>
			<point x="91" y="-10" type="curve" smooth="yes"/>
			<point x="53" y="-10"/>
			<point x="33" y="13"/>
			<point x="33" y="61" type="curve" smooth="yes"/>
		</contour>
		<contour>
			<point x="120" y="63" type="curve" smooth="yes"/>
			<point x="142" y="63"/>
			<point x="154" y="124"/>
			<point x="154" y="216" type="curve" smooth="yes"/>
			<point x="154" y="296" type="line"/>
			<point x="154" y="317" type="line"/>
			<point x="154" y="526" type="line"/>
			<point x="146" y="539"/>
			<point x="137" y="546"/>
			<point x="126" y="546" type="curve" smooth="yes"/>
			<point x="112" y="546"/>
			<point x="103" y="532"/>
			<point x="103" y="446" type="curve" smooth="yes"/>
			<point x="103" y="87" type="line" smooth="yes"/>
			<point x="103" y="69"/>
			<point x="110" y="63"/>
		</contour>
	</outline>
</glyph>
<glyph name="gamma" format="2">
	<advance width="241"/>
	<unicode hex="03B3"/>
	<anchor x="123" y="640" name="top"/>
	<note>
		Wed Jul 24 17:34:59 2019
	</note>
	<outline>
		<contour>
			<point x="84" y="125" type="line"/>
			<point x="157" y="125" type="line"/>
			<point x="157" y="-130" type="line"/>
			<point x="84" y="-130" type="line"/>
		</contour>
		<contour>
			<point x="-5" y="600" type="line"/>
			<point x="71" y="600" type="line"/>
			<point x="104" y="359" type="line"/>
			<point x="126" y="139" type="line"/>
			<point x="137" y="139" type="line"/>
			<point x="131" y="-50" type="line"/>
			<point x="110" y="-50" type="line"/>
		</contour>
		<contour>
			<point x="137" y="139" type="line"/>
			<point x="164" y="600" type="line"/>
			<point x="246" y="600" type="line"/>
			<point x="131" y="-50" type="line"/>
			<point x="110" y="-50" type="line"/>
		</contour>
	</outline>
</glyph>
<glyph name="delta" format="2">
	<advance width="276"/>
	<unicode hex="03B4"/>
	<outline>
		<contour>
			<point x="171" y="115" type="curve" smooth="yes"/>
			<point x="171" y="375" type="line" smooth="yes"/>
			<point x="171" y="408.579"/>
			<point x="166" y="422"/>
			<point x="154" y="433" type="curve"/>
			<point x="129" y="433"/>
			<point x="105" y="421.867"/>
			<point x="105" y="349" type="curve" smooth="yes"/>
			<point x="105" y="141" type="line" smooth="yes"/>
			<point x="105" y="69"/>
			<point x="123" y="58"/>
			<point x="144" y="58" type="curve"/>
			<point x="166" y="58"/>
			<point x="171" y="80"/>
		</contour>
		<contour>
			<point x="241" y="125" type="line" smooth="yes"/>
			<point x="241" y="27"/>
			<point x="191" y="-10"/>
			<point x="132" y="-10" type="curve" smooth="yes"/>
			<point x="69" y="-10"/>
			<point x="35" y="21"/>
			<point x="35" y="107" type="curve" smooth="yes"/>
			<point x="35" y="363" type="line" smooth="yes"/>
			<point x="35" y="420.448"/>
			<point x="62" y="467"/>
			<point x="107" y="467" type="curve"/>
			<point x="130" y="467"/>
			<point x="145" y="461"/>
			<point x="171" y="438" type="curve"/>
			<point x="178" y="446" type="line"/>
			<point x="112" y="498" type="line"/>
			<point x="72" y="543"/>
			<point x="45" y="581"/>
			<point x="45" y="637" type="curve" smooth="yes"/>
			<point x="45" y="706"/>
			<point x="96" y="740"/>
			<point x="156" y="740" type="curve" smooth="yes"/>
			<point x="208" y="740"/>
			<point x="233" y="711"/>
			<point x="233" y="649" type="curve" smooth="yes"/>
			<point x="233" y="615"/>
			<point x="229" y="575"/>
			<point x="222" y="530" type="curve"/>
			<point x="161" y="530" type="line"/>
			<point x="199" y="608"/>
			<point x="214" y="631"/>
			<point x="214" y="648" type="curve" smooth="yes"/>
			<point x="214" y="666"/>
			<point x="197" y="673"/>
			<point x="161" y="673" type="curve" smooth="yes"/>
			<point x="128" y="673"/>
			<point x="115" y="655"/>
			<point x="115" y="619" type="curve" smooth="yes"/>
			<point x="115" y="538"/>
			<point x="241" y="502"/>
			<point x="241" y="365" type="curve" smooth="yes"/>
		</contour>
	</outline>
</glyph>
<glyph name="zeta" format="2">
	<advance width="205"/>
	<unicode hex="03B6"/>
	<anchor x="108" y="640" name="top"/>
	<anchor x="94" y="0" name="bottom"/>
	<outline>
		<contour>
			<point x="155" y="655" type="curve"/>
			<point x="152" y="665" type="line"/>
			<point x="18" y="665" type="line"/>
			<point x="18" y="730" type="line"/>
			<point x="206" y="730" type="line"/>
			<point x="206" y="665" type="line"/>
			<point x="112" y="619"/>
			<point x="101" y="565"/>
			<point x="101" y="504" type="curve" smooth="yes"/>
			<point x="101" y="353"/>
			<point x="196" y="154.518"/>
			<point x="196" y="-6" type="curve" smooth="yes"/>
			<point x="196" y="-95"/>
			<point x="147" y="-130"/>
			<point x="90" y="-130" type="curve" smooth="yes"/>
			<point x="41" y="-130"/>
			<point x="18" y="-100"/>
			<point x="18" y="-38" type="curve" smooth="yes"/>
			<point x="18" y="5.824"/>
			<point x="27.666" y="51.577"/>
			<point x="38" y="111" type="curve"/>
			<point x="102" y="111" type="line"/>
			<point x="52.179" y="13.849"/>
			<point x="37" y="-15.678"/>
			<point x="37" y="-37" type="curve" smooth="yes"/>
			<point x="37" y="-55"/>
			<point x="52" y="-62"/>
			<point x="90" y="-62" type="curve" smooth="yes"/>
			<point x="121" y="-62"/>
			<point x="128" y="-44"/>
			<point x="128" y="-18" type="curve" smooth="yes"/>
			<point x="128" y="117"/>
			<point x="32" y="329"/>
			<point x="31" y="476" type="curve"/>
			<point x="32" y="556"/>
			<point x="69" y="611"/>
		</contour>
	</outline>
</glyph>
<glyph name="kappa" format="2">
	<advance width="273"/>
	<unicode hex="03BA"/>
	<outline>
		<contour>
			<point x="103" y="283" type="curve"/>
			<point x="106" y="317" type="line"/>
			<point x="118" y="306" type="line"/>
			<point x="217" y="319" type="line"/>
			<point x="263" y="0" type="line"/>
			<point x="187" y="0" type="line"/>
			<point x="167" y="199" type="line" smooth="yes"/>
			<point x="160" y="273"/>
			<point x="142" y="290"/>
		</contour>
		<contour>
			<point x="35" y="600" type="line"/>
			<point x="105" y="600" type="line"/>
			<point x="105" y="519" type="line"/>
			<point x="81" y="322" type="line"/>
			<point x="91" y="320" type="line"/>
			<point x="174" y="600" type="line"/>
			<point x="264" y="600" type="line"/>
			<point x="264" y="538" type="line"/>
			<point x="242" y="532" type="line" smooth="yes"/>
			<point x="199" y="520"/>
			<point x="171" y="495"/>
			<point x="144" y="412" type="curve"/>
			<point x="114" y="320"/>
			<point x="105" y="285"/>
			<point x="105" y="232" type="curve"/>
			<point x="105" y="0" type="line"/>
			<point x="35" y="0" type="line"/>
		</contour>
	</outline>
</glyph>
<glyph name="lambda" format="2">
	<advance width="251"/>
	<unicode hex="03BB"/>
	<anchor x="118" y="-170" name="top"/>
	<outline>
		<contour>
			<point x="-5" y="0" type="line"/>
			<point x="94" y="518" type="line"/>
			<point x="117" y="518" type="line"/>
			<point x="103" y="595"/>
			<point x="81" y="649"/>
			<point x="32" y="662" type="curve" smooth="yes"/>
			<point x="10" y="668" type="line"/>
			<point x="10" y="730" type="line"/>
			<point x="110" y="730" type="line"/>
			<point x="246" y="0" type="line"/>
			<point x="164" y="0" type="line"/>
			<point x="137" y="421" type="line"/>
			<point x="126" y="421" type="line"/>
			<point x="104" y="221" type="line"/>
			<point x="71" y="0" type="line"/>
		</contour>
	</outline>
</glyph>
<glyph name="xi" format="2">
	<advance width="204"/>
	<unicode hex="03BE"/>
	<anchor x="116" y="640" name="top"/>
	<anchor x="102" y="0" name="bottom"/>
	<outline>
		<contour>
			<point x="36" y="81" type="curve"/>
			<point x="94" y="81" type="line"/>
			<point x="64" y="129"/>
			<point x="14" y="201"/>
			<point x="14" y="282" type="curve" smooth="yes"/>
			<point x="14" y="325"/>
			<point x="21" y="360"/>
			<point x="46" y="394" type="curve"/>
			<point x="102" y="388" type="line"/>
			<point x="103" y="396" type="line"/>
			<point x="53" y="405"/>
			<point x="18" y="442"/>
			<point x="18" y="535" type="curve" smooth="yes"/>
			<point x="18" y="604" type="line" smooth="yes"/>
			<point x="18" y="703"/>
			<point x="59" y="740"/>
			<point x="114" y="740" type="curve" smooth="yes"/>
			<point x="166" y="740"/>
			<point x="191" y="706"/>
			<point x="191" y="643" type="curve" smooth="yes"/>
			<point x="191" y="617"/>
			<point x="188" y="551"/>
			<point x="177" y="500" type="curve"/>
			<point x="108" y="500" type="line"/>
			<point x="165" y="579"/>
			<point x="172" y="616"/>
			<point x="172" y="642" type="curve" smooth="yes"/>
			<point x="172" y="661"/>
			<point x="159" y="672"/>
			<point x="134" y="672" type="curve" smooth="yes"/>
			<point x="98" y="672"/>
			<point x="88" y="650"/>
			<point x="88" y="614" type="curve" smooth="yes"/>
			<point x="88" y="475" type="line" smooth="yes"/>
			<point x="88" y="426"/>
			<point x="112" y="400"/>
			<point x="145" y="400" type="curve" smooth="yes"/>
			<point x="173" y="400" type="line"/>
			<point x="173" y="380" type="line"/>
			<point x="145" y="380" type="line" smooth="yes"/>
			<point x="97" y="380"/>
			<point x="84" y="342"/>
			<point x="84" y="287" type="curve"/>
			<point x="84" y="170"/>
			<point x="204" y="73"/>
			<point x="204" y="-6" type="curve" smooth="yes"/>
			<point x="204" y="-95"/>
			<point x="155" y="-130"/>
			<point x="98" y="-130" type="curve" smooth="yes"/>
			<point x="49" y="-130"/>
			<point x="26" y="-100"/>
			<point x="26" y="-38" type="curve" smooth="yes"/>
			<point x="26" y="-3"/>
			<point x="28" y="35"/>
		</contour>
		<contour>
			<point x="97" y="75" type="curve"/>
			<point x="59" y="2"/>
			<point x="45" y="-20"/>
			<point x="45" y="-37" type="curve" smooth="yes"/>
			<point x="45" y="-55"/>
			<point x="60" y="-62"/>
			<point x="98" y="-62" type="curve" smooth="yes"/>
			<point x="129" y="-62"/>
			<point x="136" y="-44"/>
			<point x="136" y="-18" type="curve" smooth="yes"/>
			<point x="136" y="12"/>
			<point x="118" y="41"/>
		</contour>
	</outline>
</glyph>
<glyph name="rho" format="2">
	<advance width="283"/>
	<unicode hex="03C1"/>
	<anchor x="505" y="674" name="top"/>
	<outline>
		<contour>
			<point x="35" y="475" type="line" smooth="yes"/>
			<point x="35" y="573"/>
			<point x="87" y="610"/>
			<point x="146" y="610" type="curve" smooth="yes"/>
			<point x="210" y="610"/>
			<point x="248" y="579"/>
			<point x="248" y="493" type="curve" smooth="yes"/>
			<point x="248" y="160" type="line" smooth="yes"/>
			<point x="248" y="40"/>
			<point x="219" y="-10"/>
			<point x="155" y="-10" type="curve" smooth="yes"/>
			<point x="131" y="-10"/>
			<point x="103" y="6"/>
			<point x="86" y="23" type="curve"/>
			<point x="80" y="17" type="line"/>
			<point x="105" y="-9" type="line"/>
			<point x="105" y="-130" type="line"/>
			<point x="35" y="-130" type="line"/>
		</contour>
		<contour>
			<point x="105" y="74" type="line"/>
			<point x="118" y="61"/>
			<point x="132" y="54"/>
			<point x="148" y="54" type="curve" smooth="yes"/>
			<point x="167" y="54"/>
			<point x="176" y="68"/>
			<point x="176" y="154" type="curve" smooth="yes"/>
			<point x="176" y="459" type="line" smooth="yes"/>
			<point x="176" y="531"/>
			<point x="154" y="542"/>
			<point x="134" y="542" type="curve" smooth="yes"/>
			<point x="112" y="542"/>
			<point x="105" y="520"/>
			<point x="105" y="485" type="curve" smooth="yes"/>
		</contour>
	</outline>
</glyph>
<glyph name="sigma" format="2">
	<advance width="281"/>
	<unicode hex="03C3"/>
	<outline>
		<contour>
			<point x="125" y="532" type="curve" smooth="yes"/>
			<point x="103" y="532"/>
			<point x="98" y="510"/>
			<point x="98" y="475" type="curve"/>
			<point x="98" y="133" type="line" smooth="yes"/>
			<point x="98" y="61"/>
			<point x="116" y="50"/>
			<point x="137" y="50" type="curve"/>
			<point x="159" y="50"/>
			<point x="164" y="72"/>
			<point x="164" y="107" type="curve"/>
			<point x="164" y="449" type="line" smooth="yes"/>
			<point x="164" y="521"/>
			<point x="145" y="532"/>
		</contour>
		<contour>
			<point x="234" y="463" type="curve"/>
			<point x="234" y="120" type="line" smooth="yes"/>
			<point x="234" y="26"/>
			<point x="184" y="-10"/>
			<point x="125" y="-10" type="curve"/>
			<point x="62" y="-10"/>
			<point x="28" y="24"/>
			<point x="28" y="107" type="curve"/>
			<point x="28" y="465" type="line" smooth="yes"/>
			<point x="28" y="563"/>
			<point x="78" y="600"/>
			<point x="137" y="600" type="curve"/>
			<point x="281" y="600" type="line"/>
			<point x="281" y="485" type="line"/>
			<point x="223" y="568"/>
			<point x="188" y="582"/>
			<point x="141" y="583" type="curve"/>
			<point x="141" y="571" type="line"/>
			<point x="196" y="564"/>
			<point x="234" y="527"/>
		</contour>
	</outline>
</glyph>
<glyph name="tau" format="2">
	<advance width="223"/>
	<unicode hex="03C4"/>
	<outline>
		<contour>
			<point x="77" y="535" type="line"/>
			<point x="77" y="0" type="line"/>
			<point x="147" y="0" type="line"/>
			<point x="147" y="535" type="line"/>
			<point x="218" y="535" type="line"/>
			<point x="218" y="600" type="line"/>
			<point x="5" y="600" type="line"/>
			<point x="5" y="535" type="line"/>
		</contour>
	</outline>
</glyph>
<glyph name="phi" format="2">
	<advance width="405"/>
	<unicode hex="03C6"/>
	<outline>
		<contour>
			<point x="211" y="539" type="curve"/>
			<point x="191" y="539" type="line" smooth="yes"/>
			<point x="112" y="539"/>
			<point x="103" y="510"/>
			<point x="103" y="455" type="curve"/>
			<point x="103" y="161" type="line" smooth="yes"/>
			<point x="103" y="80"/>
			<point x="125" y="61"/>
			<point x="198" y="61" type="curve"/>
			<point x="218" y="61" type="line" smooth="yes"/>
			<point x="294" y="61"/>
			<point x="302" y="90"/>
			<point x="302" y="145" type="curve"/>
			<point x="302" y="439" type="line" smooth="yes"/>
			<point x="302" y="521"/>
			<point x="281" y="539"/>
		</contour>
		<contour>
			<point x="206" y="0" type="curve"/>
			<point x="186" y="0" type="line" smooth="yes"/>
			<point x="68" y="0"/>
			<point x="35" y="31"/>
			<point x="35" y="137" type="curve"/>
			<point x="35" y="445" type="line" smooth="yes"/>
			<point x="35" y="563"/>
			<point x="84" y="600"/>
			<point x="198" y="600" type="curve"/>
			<point x="218" y="600" type="line" smooth="yes"/>
			<point x="338" y="600"/>
			<point x="370" y="569"/>
			<point x="370" y="463" type="curve"/>
			<point x="370" y="155" type="line" smooth="yes"/>
			<point x="370" y="37"/>
			<point x="321" y="0"/>
		</contour>
		<contour>
			<point x="166" y="730" type="line"/>
			<point x="239" y="730" type="line"/>
			<point x="239" y="-130" type="line"/>
			<point x="166" y="-130" type="line"/>
		</contour>
	</outline>
</glyph>
<glyph name="psi" format="2">
	<advance width="405"/>
	<unicode hex="03C8"/>
	<outline>
		<contour>
			<point x="35" y="137" type="curve" smooth="yes"/>
			<point x="35" y="600" type="line"/>
			<point x="103" y="600" type="line"/>
			<point x="103" y="161" type="line" smooth="yes"/>
			<point x="103" y="93"/>
			<point x="118" y="69"/>
			<point x="166" y="63" type="curve"/>
			<point x="166" y="730" type="line"/>
			<point x="239" y="730" type="line"/>
			<point x="239" y="62" type="line"/>
			<point x="296" y="67"/>
			<point x="302" y="96"/>
			<point x="302" y="145" type="curve" smooth="yes"/>
			<point x="302" y="600" type="line"/>
			<point x="370" y="600" type="line"/>
			<point x="370" y="155" type="line" smooth="yes"/>
			<point x="370" y="49"/>
			<point x="330" y="8"/>
			<point x="239" y="1" type="curve"/>
			<point x="239" y="-130" type="line"/>
			<point x="166" y="-130" type="line"/>
			<point x="166" y="0" type="line"/>
			<point x="64" y="4"/>
			<point x="35" y="37"/>
		</contour>
	</outline>
</glyph>
<glyph name="omega" format="2">
	<advance width="402"/>
	<unicode hex="03C9"/>
	<outline>
		<contour>
			<point x="204" y="132" type="curve"/>
			<point x="198" y="132" type="line"/>
			<point x="189" y="36"/>
			<point x="151" y="-10"/>
			<point x="107" y="-10" type="curve" smooth="yes"/>
			<point x="63" y="-10"/>
			<point x="35" y="21"/>
			<point x="35" y="107" type="curve" smooth="yes"/>
			<point x="35" y="448" type="line" smooth="yes"/>
			<point x="35" y="544"/>
			<point x="69" y="586"/>
			<point x="110" y="600" type="curve"/>
			<point x="180" y="600" type="line"/>
			<point x="181" y="590" type="line"/>
			<point x="119" y="566"/>
			<point x="105" y="540"/>
			<point x="105" y="458" type="curve"/>
			<point x="105" y="141" type="line" smooth="yes"/>
			<point x="105" y="69"/>
			<point x="115" y="58"/>
			<point x="136" y="58" type="curve" smooth="yes"/>
			<point x="164" y="58"/>
			<point x="175" y="96"/>
			<point x="173" y="160" type="curve" smooth="yes"/>
			<point x="163" y="478" type="line"/>
			<point x="239" y="478" type="line"/>
			<point x="229" y="160" type="line" smooth="yes"/>
			<point x="227" y="96"/>
			<point x="238" y="58"/>
			<point x="266" y="58" type="curve" smooth="yes"/>
			<point x="287" y="58"/>
			<point x="297" y="69"/>
			<point x="297" y="141" type="curve" smooth="yes"/>
			<point x="297" y="458" type="line"/>
			<point x="297" y="540"/>
			<point x="283" y="566"/>
			<point x="221" y="590" type="curve"/>
			<point x="222" y="600" type="line"/>
			<point x="292" y="600" type="line"/>
			<point x="333" y="586"/>
			<point x="367" y="544"/>
			<point x="367" y="448" type="curve" smooth="yes"/>
			<point x="367" y="107" type="line" smooth="yes"/>
			<point x="367" y="21"/>
			<point x="339" y="-10"/>
			<point x="295" y="-10" type="curve" smooth="yes"/>
			<point x="251" y="-10"/>
			<point x="213" y="36"/>
		</contour>
	</outline>
</glyph>
<glyph name="uni0411" format="2">
	<advance width="279"/>
	<unicode hex="0411"/>
	<outline>
		<contour>
			<point x="30" y="730" type="line"/>
			<point x="105" y="730" type="line"/>
			<point x="105" y="0" type="line"/>
			<point x="30" y="0" type="line"/>
		</contour>
		<contour>
			<point x="233" y="665" type="line"/>
			<point x="41" y="665" type="line"/>
			<point x="41" y="730" type="line"/>
			<point x="233" y="730" type="line"/>
		</contour>
		<contour>
			<point x="120" y="372" type="curve"/>
			<point x="62" y="372" type="line"/>
			<point x="62" y="440" type="line"/>
			<point x="62" y="440"/>
			<point x="107" y="440"/>
			<point x="107" y="440" type="curve"/>
			<point x="188" y="440"/>
			<point x="256" y="403"/>
			<point x="256" y="305" type="curve"/>
			<point x="256" y="126" type="line" smooth="yes"/>
			<point x="256" y="35"/>
			<point x="206" y="0"/>
			<point x="120" y="0" type="curve"/>
			<point x="71" y="0" type="line"/>
			<point x="71" y="68" type="line"/>
			<point x="71" y="68"/>
			<point x="113" y="68"/>
			<point x="113" y="68" type="curve"/>
			<point x="163" y="68"/>
			<point x="181" y="86"/>
			<point x="181" y="151" type="curve"/>
			<point x="181" y="315" type="line" smooth="yes"/>
			<point x="181" y="350"/>
			<point x="169" y="372"/>
		</contour>
	</outline>
</glyph>
<glyph name="uni0417" format="2">
	<advance width="230"/>
	<unicode hex="0417"/>
	<outline>
		<contour>
			<point x="166" y="374" type="curve"/>
			<point x="112" y="368" type="line"/>
			<point x="111" y="376" type="line"/>
			<point x="161" y="385"/>
			<point x="196" y="422"/>
			<point x="196" y="515" type="curve"/>
			<point x="196" y="605" type="line" smooth="yes"/>
			<point x="196" y="703"/>
			<point x="157" y="740"/>
			<point x="99" y="740" type="curve"/>
			<point x="47" y="740"/>
			<point x="22" y="709"/>
			<point x="22" y="647" type="curve"/>
			<point x="22" y="596"/>
			<point x="24" y="546"/>
			<point x="32" y="455" type="curve"/>
			<point x="103" y="455" type="line"/>
			<point x="47" y="595"/>
			<point x="41" y="614"/>
			<point x="41" y="642" type="curve"/>
			<point x="41" y="664"/>
			<point x="52" y="672"/>
			<point x="72" y="672" type="curve"/>
			<point x="120" y="672"/>
			<point x="121" y="650"/>
			<point x="121" y="615" type="curve"/>
			<point x="121" y="455" type="line" smooth="yes"/>
			<point x="121" y="406"/>
			<point x="102" y="380"/>
			<point x="69" y="380" type="curve"/>
			<point x="47" y="380" type="line"/>
			<point x="47" y="360" type="line"/>
			<point x="69" y="360" type="line" smooth="yes"/>
			<point x="107" y="360"/>
			<point x="125" y="336"/>
			<point x="125" y="275" type="curve"/>
			<point x="125" y="141" type="line" smooth="yes"/>
			<point x="125" y="69"/>
			<point x="104" y="58"/>
			<point x="84" y="58" type="curve"/>
			<point x="58" y="58"/>
			<point x="48" y="96"/>
			<point x="46" y="160" type="curve"/>
			<point x="43" y="278" type="line"/>
			<point x="29" y="278" type="line"/>
			<point x="26" y="157" type="line" smooth="yes"/>
			<point x="24" y="62"/>
			<point x="53" y="-10"/>
			<point x="113" y="-10" type="curve"/>
			<point x="170" y="-10"/>
			<point x="200" y="21"/>
			<point x="200" y="107" type="curve"/>
			<point x="200" y="225" type="line" smooth="yes"/>
			<point x="200" y="292"/>
			<point x="194" y="354"/>
		</contour>
	</outline>
</glyph>
<glyph name="uni0419" format="2">
	<advance width="280"/>
	<unicode hex="0419"/>
	<anchor x="139" y="760" name="top"/>
	<anchor x="139" y="760" name="_top"/>
	<outline>
		<contour>
			<point x="239" y="850" type="line"/>
			<point x="169" y="850" type="line"/>
			<point x="171" y="840" type="line" smooth="yes"/>
			<point x="181" y="792"/>
			<point x="174" y="770"/>
			<point x="139" y="770" type="curve"/>
			<point x="104" y="770"/>
			<point x="97" y="792"/>
			<point x="107" y="840" type="curve"/>
			<point x="109" y="850" type="line"/>
			<point x="39" y="850" type="line"/>
			<point x="39" y="840" type="line" smooth="yes"/>
			<point x="39" y="784"/>
			<point x="71" y="757"/>
			<point x="139" y="756" type="curve"/>
			<point x="207" y="757"/>
			<point x="239" y="784"/>
			<point x="239" y="840" type="curve"/>
		</contour>
		<component base="uni0418"/>
	</outline>
</glyph>
<glyph name="uni041B" format="2">
	<advance width="279"/>
	<unicode hex="041B"/>
	<outline>
		<contour>
			<point x="5" y="77" type="curve"/>
			<point x="5" y="0" type="line"/>
			<point x="79" y="0" type="line"/>
			<point x="95" y="122"/>
			<point x="93" y="278"/>
			<point x="93" y="730" type="curve"/>
			<point x="66" y="730" type="line"/>
			<point x="66" y="266"/>
			<point x="63" y="117"/>
		</contour>
		<contour>
			<point x="174" y="730" type="line"/>
			<point x="174" y="0" type="line"/>
			<point x="249" y="0" type="line"/>
			<point x="249" y="730" type="line"/>
		</contour>
		<contour>
			<point x="76" y="730" type="line"/>
			<point x="76" y="665" type="line"/>
			<point x="190" y="665" type="line"/>
			<point x="190" y="730" type="line"/>
		</contour>
	</outline>
</glyph>
<glyph name="uni0423" format="2">
	<advance width="276"/>
	<unicode hex="0423"/>
	<outline>
		<contour>
			<point x="0" y="730" type="line"/>
			<point x="81" y="730" type="line"/>
			<point x="115" y="509" type="line"/>
			<point x="137" y="309" type="line"/>
			<point x="148" y="309" type="line"/>
			<point x="138" y="212" type="line"/>
			<point x="108" y="212" type="line"/>
		</contour>
		<contour>
			<point x="148" y="309" type="line"/>
			<point x="189" y="730" type="line"/>
			<point x="276" y="730" type="line"/>
			<point x="121" y="0" type="line"/>
			<point x="27" y="0" type="line"/>
			<point x="138" y="212" type="line"/>
		</contour>
	</outline>
</glyph>
<glyph name="uni0426" format="2">
	<advance width="295"/>
	<unicode hex="0426"/>
	<outline>
		<contour>
			<point x="210" y="65" type="line"/>
			<point x="270" y="-107" type="line"/>
			<point x="290" y="-107" type="line"/>
			<point x="290" y="65" type="line"/>
		</contour>
		<component base="uni041F" yScale="-1" yOffset="730"/>
	</outline>
</glyph>
<glyph name="uni0427" format="2">
	<advance width="280"/>
	<unicode hex="0427"/>
	<outline>
		<contour>
			<point x="250" y="0" type="line"/>
			<point x="175" y="0" type="line"/>
			<point x="175" y="284" type="line"/>
			<point x="158" y="276"/>
			<point x="134" y="270"/>
			<point x="110" y="270" type="curve"/>
			<point x="59" y="270"/>
			<point x="25" y="303"/>
			<point x="25" y="353" type="curve"/>
			<point x="25" y="732" type="line"/>
			<point x="100" y="732" type="line"/>
			<point x="100" y="352" type="line" smooth="yes"/>
			<point x="100" y="316"/>
			<point x="107" y="298"/>
			<point x="135" y="298" type="curve"/>
			<point x="149" y="298"/>
			<point x="165" y="301"/>
			<point x="175" y="305" type="curve"/>
			<point x="175" y="730" type="line"/>
			<point x="250" y="730" type="line"/>
		</contour>
	</outline>
</glyph>
<glyph name="uni042A" format="2">
	<advance width="316"/>
	<unicode hex="042A"/>
	<outline>
		<contour>
			<point x="-5" y="665" type="line"/>
			<point x="-5" y="730" type="line"/>
			<point x="123" y="730" type="line"/>
			<point x="123" y="665" type="line"/>
		</contour>
		<component base="uni042C" xOffset="30"/>
	</outline>
</glyph>
<glyph name="uni042C" format="2">
	<advance width="286"/>
	<unicode hex="042C"/>
	<outline>
		<contour>
			<point x="105" y="730" type="line"/>
			<point x="105" y="0" type="line"/>
			<point x="30" y="0" type="line"/>
			<point x="30" y="730" type="line"/>
		</contour>
		<contour>
			<point x="120" y="402" type="curve"/>
			<point x="62" y="402" type="line"/>
			<point x="62" y="470" type="line"/>
			<point x="62" y="470"/>
			<point x="107" y="470"/>
			<point x="107" y="470" type="curve"/>
			<point x="188" y="470"/>
			<point x="256" y="433"/>
			<point x="256" y="335" type="curve"/>
			<point x="256" y="126" type="line" smooth="yes"/>
			<point x="256" y="35"/>
			<point x="206" y="0"/>
			<point x="120" y="0" type="curve"/>
			<point x="71" y="0" type="line"/>
			<point x="71" y="68" type="line"/>
			<point x="71" y="68"/>
			<point x="113" y="68"/>
			<point x="113" y="68" type="curve"/>
			<point x="163" y="68"/>
			<point x="181" y="86"/>
			<point x="181" y="151" type="curve"/>
			<point x="181" y="345" type="line" smooth="yes"/>
			<point x="181" y="380"/>
			<point x="169" y="402"/>
		</contour>
	</outline>
</glyph>
<glyph name="uni042D" format="2">
	<advance width="236"/>
	<unicode hex="042D"/>
	<anchor x="118" y="0" name="bottom"/>
	<outline>
		<contour>
			<point x="119" y="-10" type="curve" smooth="yes"/>
			<point x="176" y="-10"/>
			<point x="206" y="21"/>
			<point x="206" y="107" type="curve"/>
			<point x="206" y="605" type="line" smooth="yes"/>
			<point x="206" y="703"/>
			<point x="157" y="740"/>
			<point x="99" y="740" type="curve"/>
			<point x="47" y="740"/>
			<point x="22" y="709"/>
			<point x="22" y="647" type="curve"/>
			<point x="22" y="596"/>
			<point x="24" y="556"/>
			<point x="42" y="455" type="curve"/>
			<point x="118" y="455" type="line"/>
			<point x="48" y="605"/>
			<point x="41" y="614"/>
			<point x="41" y="642" type="curve"/>
			<point x="41" y="664"/>
			<point x="52" y="672"/>
			<point x="72" y="672" type="curve"/>
			<point x="120" y="672"/>
			<point x="131" y="650"/>
			<point x="131" y="615" type="curve"/>
			<point x="131" y="141" type="line" smooth="yes"/>
			<point x="131" y="69"/>
			<point x="110" y="58"/>
			<point x="90" y="58" type="curve"/>
			<point x="64" y="58"/>
			<point x="54" y="96"/>
			<point x="52" y="160" type="curve"/>
			<point x="49" y="278" type="line"/>
			<point x="35" y="278" type="line"/>
			<point x="32" y="157" type="line" smooth="yes"/>
			<point x="30" y="62"/>
			<point x="59" y="-10"/>
		</contour>
		<contour>
			<point x="50" y="360" type="line"/>
			<point x="150" y="360" type="line"/>
			<point x="150" y="380" type="line"/>
			<point x="50" y="380" type="line"/>
		</contour>
	</outline>
</glyph>
<glyph name="uni042E" format="2">
	<advance width="416"/>
	<unicode hex="042E"/>
	<anchor x="277" y="760" name="top"/>
	<anchor x="105" y="0" name="bottom_right"/>
	<outline>
		<contour>
			<point x="218" y="364" type="line"/>
			<point x="50" y="364" type="line"/>
			<point x="50" y="384" type="line"/>
			<point x="218" y="384" type="line"/>
		</contour>
		<component base="I"/>
		<component base="O" xOffset="130"/>
	</outline>
</glyph>
<glyph name="uni0434" format="2">
	<advance width="252"/>
	<unicode hex="0434"/>
	<outline>
		<contour>
			<point x="5" y="65" type="line"/>
			<point x="5" y="0" type="line"/>
			<point x="149" y="0" type="line"/>
			<point x="149" y="65" type="line"/>
		</contour>
		<contour>
			<point x="172" y="65" type="line"/>
			<point x="227" y="-97" type="line"/>
			<point x="247" y="-97" type="line"/>
			<point x="247" y="65" type="line"/>
		</contour>
		<contour>
			<point x="5" y="-97" type="line"/>
			<point x="25" y="-97" type="line"/>
			<point x="80" y="65" type="line"/>
			<point x="5" y="65" type="line"/>
		</contour>
		<contour>
			<point x="26" y="65" type="curve"/>
			<point x="26" y="0" type="line"/>
			<point x="61" y="0" type="line"/>
			<point x="75" y="114"/>
			<point x="76" y="225"/>
			<point x="76" y="600" type="curve"/>
			<point x="51" y="600" type="line"/>
			<point x="51" y="210"/>
			<point x="48" y="112"/>
		</contour>
		<contour>
			<point x="147" y="600" type="line"/>
			<point x="147" y="0" type="line"/>
			<point x="217" y="0" type="line"/>
			<point x="217" y="600" type="line"/>
		</contour>
		<contour>
			<point x="59" y="600" type="line"/>
			<point x="59" y="535" type="line"/>
			<point x="163" y="535" type="line"/>
			<point x="163" y="600" type="line"/>
		</contour>
	</outline>
</glyph>
<glyph name="uni043D" format="2">
	<advance width="283"/>
	<unicode hex="043D"/>
	<outline>
		<contour>
			<point x="35" y="600" type="line"/>
			<point x="105" y="600" type="line"/>
			<point x="105" y="0" type="line"/>
			<point x="35" y="0" type="line"/>
		</contour>
		<contour>
			<point x="178" y="600" type="line"/>
			<point x="248" y="600" type="line"/>
			<point x="248" y="0" type="line"/>
			<point x="178" y="0" type="line"/>
		</contour>
		<contour>
			<point x="194" y="294" type="line"/>
			<point x="82" y="294" type="line"/>
			<point x="82" y="314" type="line"/>
			<point x="194" y="314" type="line"/>
		</contour>
	</outline>
</glyph>
<glyph name="uni0446" format="2">
	<advance width="278"/>
	<unicode hex="0446"/>
	<outline>
		<contour>
			<point x="198" y="65" type="line"/>
			<point x="253" y="-97" type="line"/>
			<point x="273" y="-97" type="line"/>
			<point x="273" y="65" type="line"/>
		</contour>
		<component base="uni043F" yScale="-1" yOffset="600"/>
	</outline>
</glyph>
<glyph name="uni0447" format="2">
	<advance width="263"/>
	<unicode hex="0447"/>
	<outline>
		<contour>
			<point x="228" y="0" type="line"/>
			<point x="158" y="0" type="line"/>
			<point x="158" y="233" type="line"/>
			<point x="139" y="223"/>
			<point x="120" y="220"/>
			<point x="99" y="220" type="curve"/>
			<point x="49" y="220"/>
			<point x="25" y="246"/>
			<point x="25" y="300" type="curve"/>
			<point x="25" y="600" type="line"/>
			<point x="95" y="600" type="line"/>
			<point x="95" y="299" type="line" smooth="yes"/>
			<point x="95" y="264"/>
			<point x="106" y="248"/>
			<point x="129" y="248" type="curve"/>
			<point x="140" y="248"/>
			<point x="148" y="250"/>
			<point x="158" y="255" type="curve"/>
			<point x="158" y="600" type="line"/>
			<point x="228" y="600" type="line"/>
		</contour>
	</outline>
</glyph>
<glyph name="uni0448" format="2">
	<advance width="386"/>
	<unicode hex="0448"/>
	<outline>
		<contour>
			<point x="281" y="600" type="line"/>
			<point x="281" y="0" type="line"/>
			<point x="351" y="0" type="line"/>
			<point x="351" y="600" type="line"/>
		</contour>
		<contour>
			<point x="35" y="600" type="line"/>
			<point x="35" y="0" type="line"/>
			<point x="105" y="0" type="line"/>
			<point x="105" y="600" type="line"/>
		</contour>
		<contour>
			<point x="158" y="600" type="line"/>
			<point x="158" y="0" type="line"/>
			<point x="228" y="0" type="line"/>
			<point x="228" y="600" type="line"/>
		</contour>
		<contour>
			<point x="331" y="0" type="line"/>
			<point x="331" y="65" type="line"/>
			<point x="55" y="65" type="line"/>
			<point x="55" y="0" type="line"/>
		</contour>
	</outline>
</glyph>
<glyph name="uni044A" format="2">
	<advance width="265"/>
	<unicode hex="044A"/>
	<outline>
		<contour>
			<point x="-5" y="535" type="line"/>
			<point x="-5" y="600" type="line"/>
			<point x="112" y="600" type="line"/>
			<point x="112" y="535" type="line"/>
		</contour>
		<component base="uni044C" xOffset="19"/>
	</outline>
</glyph>
<glyph name="uni044D" format="2">
	<advance width="244"/>
	<unicode hex="044D"/>
	<outline>
		<contour>
			<point x="127" y="-10" type="curve" smooth="yes"/>
			<point x="181" y="-10"/>
			<point x="209" y="21"/>
			<point x="209" y="107" type="curve"/>
			<point x="209" y="474" type="line" smooth="yes"/>
			<point x="209" y="573"/>
			<point x="162" y="610"/>
			<point x="107" y="610" type="curve"/>
			<point x="55" y="610"/>
			<point x="30" y="579"/>
			<point x="30" y="516" type="curve"/>
			<point x="30" y="490"/>
			<point x="33" y="423"/>
			<point x="50" y="370" type="curve"/>
			<point x="126" y="370" type="line"/>
			<point x="66" y="451"/>
			<point x="49" y="489"/>
			<point x="49" y="515" type="curve"/>
			<point x="49" y="534"/>
			<point x="62" y="542"/>
			<point x="87" y="542" type="curve"/>
			<point x="123" y="542"/>
			<point x="139" y="520"/>
			<point x="139" y="484" type="curve"/>
			<point x="139" y="141" type="line" smooth="yes"/>
			<point x="139" y="69"/>
			<point x="118" y="58"/>
			<point x="95" y="58" type="curve"/>
			<point x="72" y="58"/>
			<point x="62" y="96"/>
			<point x="60" y="160" type="curve"/>
			<point x="57" y="238" type="line"/>
			<point x="43" y="238" type="line"/>
			<point x="40" y="157" type="line" smooth="yes"/>
			<point x="36" y="62"/>
			<point x="67" y="-10"/>
		</contour>
		<contour>
			<point x="54" y="290" type="line"/>
			<point x="156" y="290" type="line"/>
			<point x="156" y="310" type="line"/>
			<point x="54" y="310" type="line"/>
		</contour>
	</outline>
</glyph>
<glyph name="uni044E" format="2">
	<advance width="399"/>
	<unicode hex="044E"/>
	<anchor x="266" y="640" name="top"/>
	<outline>
		<contour>
			<point x="194" y="294" type="line"/>
			<point x="82" y="294" type="line"/>
			<point x="82" y="314" type="line"/>
			<point x="194" y="314" type="line"/>
		</contour>
		<component base="dotlessi"/>
		<component base="o" xOffset="123"/>
	</outline>
</glyph>
<glyph name="uni044F" format="2">
	<advance width="286"/>
	<unicode hex="044F"/>
	<outline>
		<contour>
			<point x="181" y="0" type="line"/>
			<point x="181" y="600" type="line"/>
			<point x="251" y="600" type="line"/>
			<point x="251" y="0" type="line"/>
		</contour>
		<contour>
			<point x="162" y="269" type="curve"/>
			<point x="215" y="269" type="line"/>
			<point x="214" y="251" type="line"/>
			<point x="158" y="251" type="line" smooth="yes"/>
			<point x="86" y="251"/>
			<point x="35" y="285"/>
			<point x="35" y="375" type="curve"/>
			<point x="35" y="474" type="line" smooth="yes"/>
			<point x="35" y="565"/>
			<point x="80" y="600"/>
			<point x="166" y="600" type="curve"/>
			<point x="215" y="600" type="line"/>
			<point x="215" y="532" type="line"/>
			<point x="215" y="532"/>
			<point x="173" y="532"/>
			<point x="173" y="532" type="curve"/>
			<point x="123" y="532"/>
			<point x="105" y="514"/>
			<point x="105" y="449" type="curve"/>
			<point x="105" y="345" type="line" smooth="yes"/>
			<point x="105" y="310"/>
			<point x="114" y="269"/>
		</contour>
		<contour>
			<point x="132" y="242" type="line"/>
			<point x="133" y="258" type="line"/>
			<point x="184" y="254" type="line"/>
			<point x="184" y="240" type="line"/>
			<point x="144" y="241"/>
			<point x="123" y="227"/>
			<point x="119" y="196" type="curve"/>
			<point x="91" y="0" type="line"/>
			<point x="20" y="0" type="line"/>
			<point x="66" y="242" type="line"/>
		</contour>
	</outline>
</glyph>
<glyph name="uni0490" format="2">
	<advance width="223"/>
	<unicode hex="0490"/>
	<outline>
		<contour>
			<point x="193" y="850" type="line"/>
			<point x="153" y="723" type="line"/>
			<point x="213" y="723" type="line"/>
			<point x="213" y="850" type="line"/>
		</contour>
		<component base="uni0413"/>
	</outline>
</glyph>
<glyph name="emdash" format="2">
	<advance width="950"/>
	<unicode hex="2014"/>
	<outline>
		<contour>
			<point x="930" y="314" type="line"/>
			<point x="20" y="314" type="line"/>
			<point x="20" y="347" type="line"/>
			<point x="930" y="347" type="line"/>
		</contour>
	</outline>
</glyph>
<glyph name="perthousand" format="2">
	<advance width="814"/>
	<unicode hex="2030"/>
	<anchor x="143" y="770" name="top"/>
	<outline>
		<contour>
			<point x="670" y="342" type="curve" smooth="yes"/>
			<point x="648" y="342"/>
			<point x="643" y="320"/>
			<point x="643" y="285" type="curve"/>
			<point x="643" y="141" type="line" smooth="yes"/>
			<point x="643" y="69"/>
			<point x="661" y="58"/>
			<point x="682" y="58" type="curve"/>
			<point x="704" y="58"/>
			<point x="709" y="80"/>
			<point x="709" y="115" type="curve"/>
			<point x="709" y="259" type="line" smooth="yes"/>
			<point x="709" y="331"/>
			<point x="690" y="342"/>
		</contour>
		<contour>
			<point x="670" y="-10" type="curve" smooth="yes"/>
			<point x="607" y="-10"/>
			<point x="573" y="21"/>
			<point x="573" y="107" type="curve"/>
			<point x="573" y="275" type="line" smooth="yes"/>
			<point x="573" y="373"/>
			<point x="623" y="410"/>
			<point x="682" y="410" type="curve"/>
			<point x="746" y="410"/>
			<point x="779" y="379"/>
			<point x="779" y="293" type="curve"/>
			<point x="779" y="125" type="line" smooth="yes"/>
			<point x="779" y="27"/>
			<point x="729" y="-10"/>
		</contour>
		<component base="percent"/>
	</outline>
</glyph>
<glyph name="guilsinglleft" format="2">
	<advance width="155"/>
	<unicode hex="2039"/>
	<outline>
		<contour>
			<point x="55" y="299" type="curve" smooth="yes"/>
			<point x="55" y="273"/>
			<point x="72" y="235"/>
			<point x="132" y="118" type="curve"/>
			<point x="56" y="118" type="line"/>
			<point x="39" y="207"/>
			<point x="36" y="274"/>
			<point x="36" y="300" type="curve"/>
			<point x="36" y="328"/>
			<point x="39" y="395"/>
			<point x="56" y="482" type="curve"/>
			<point x="132" y="482" type="line"/>
			<point x="72" y="367"/>
			<point x="55" y="329"/>
		</contour>
	</outline>
</glyph>
<glyph name="uni20B4" format="2">
	<advance width="243"/>
	<unicode hex="20B4"/>
	<anchor x="117" y="750" name="top"/>
	<anchor x="126" y="0" name="bottom"/>
	<outline>
		<contour>
			<point x="44" y="410" type="line"/>
			<point x="40" y="390" type="line"/>
			<point x="214" y="390" type="line"/>
			<point x="218" y="410" type="line"/>
		</contour>
		<contour>
			<point x="33" y="350" type="line"/>
			<point x="29" y="330" type="line"/>
			<point x="203" y="330" type="line"/>
			<point x="207" y="350" type="line"/>
		</contour>
		<component base="S" xScale="-1" xOffset="244"/>
	</outline>
</glyph>
<glyph name="uni20B8" format="2">
	<advance width="251"/>
	<unicode hex="20B8"/>
	<outline>
		<contour>
			<point x="88" y="664" type="line"/>
			<point x="163" y="664" type="line"/>
			<point x="163" y="0" type="line"/>
			<point x="88" y="0" type="line"/>
		</contour>
		<contour>
			<point x="5" y="710" type="line"/>
			<point x="5" y="730" type="line"/>
			<point x="246" y="730" type="line"/>
			<point x="246" y="710" type="line"/>
		</contour>
		<contour>
			<point x="5" y="615" type="line"/>
			<point x="5" y="680" type="line"/>
			<point x="246" y="680" type="line"/>
			<point x="246" y="615" type="line"/>
		</contour>
	</outline>
</glyph>
<glyph name="uni20BD" format="2">
	<advance width="321"/>
	<unicode hex="20BD"/>
	<outline>
		<contour>
			<point x="30" y="197" type="line"/>
			<point x="30" y="177" type="line"/>
			<point x="200" y="177" type="line"/>
			<point x="200" y="197" type="line"/>
		</contour>
		<contour>
			<point x="30" y="250" type="line"/>
			<point x="30" y="230" type="line"/>
			<point x="120" y="230" type="line"/>
			<point x="120" y="250" type="line"/>
		</contour>
		<contour>
			<point x="97" y="250" type="line"/>
			<point x="97" y="230" type="line"/>
			<point x="97" y="230"/>
			<point x="142" y="230"/>
			<point x="142" y="230" type="curve"/>
			<point x="249" y="230"/>
			<point x="291" y="265"/>
			<point x="291" y="355" type="curve"/>
			<point x="291" y="604" type="line" smooth="yes"/>
			<point x="291" y="695"/>
			<point x="241" y="730"/>
			<point x="155" y="730" type="curve"/>
			<point x="106" y="730" type="line"/>
			<point x="106" y="662" type="line"/>
			<point x="106" y="662"/>
			<point x="148" y="662"/>
			<point x="148" y="662" type="curve"/>
			<point x="198" y="662"/>
			<point x="216" y="644"/>
			<point x="216" y="579" type="curve"/>
			<point x="216" y="327" type="line" smooth="yes"/>
			<point x="216" y="272"/>
			<point x="199" y="250"/>
			<point x="155" y="250" type="curve"/>
		</contour>
		<contour>
			<point x="65" y="730" type="line"/>
			<point x="65" y="0" type="line"/>
			<point x="140" y="0" type="line"/>
			<point x="140" y="730" type="line"/>
		</contour>
	</outline>
</glyph>
<glyph name="minus" format="2">
	<advance width="298"/>
	<unicode hex="2212"/>
	<outline>
		<contour>
			<point x="268" y="364" type="line"/>
			<point x="268" y="301" type="line"/>
			<point x="30" y="324" type="line"/>
			<point x="30" y="337" type="line"/>
		</contour>
	</outline>
</glyph>
<glyph name="uni26A1" format="2">
	<advance width="440"/>
	<unicode hex="26A1"/>
	<outline>
		<contour>
			<point x="250" y="908" type="line"/>
			<point x="313" y="883" type="line"/>
			<point x="158" y="498" type="line"/>
			<point x="168" y="492" type="line"/>
			<point x="53" y="321" type="line"/>
			<point x="34" y="331" type="line"/>
		</contour>
		<contour>
			<point x="168" y="492" type="line"/>
			<point x="346" y="722" type="line"/>
			<point x="366" y="711" type="line"/>
			<point x="251" y="564" type="line"/>
			<point x="53" y="321" type="line"/>
			<point x="34" y="331" type="line"/>
		</contour>
		<contour>
			<point x="207" y="535" type="line"/>
			<point x="366" y="711" type="line"/>
			<point x="190" y="264" type="line"/>
			<point x="200" y="258" type="line"/>
			<point x="84" y="87" type="line"/>
			<point x="66" y="98" type="line"/>
			<point x="227" y="522" type="line"/>
		</contour>
		<contour>
			<point x="199" y="259" type="line"/>
			<point x="377" y="489" type="line"/>
			<point x="397" y="478" type="line"/>
			<point x="282" y="331" type="line"/>
			<point x="83" y="88" type="line"/>
			<point x="65" y="98" type="line"/>
		</contour>
		<contour>
			<point x="238" y="302" type="line"/>
			<point x="397" y="478" type="line"/>
			<point x="114" y="-146" type="line"/>
			<point x="97" y="-135" type="line"/>
			<point x="257" y="289" type="line"/>
		</contour>
	</outline>
</glyph>
<glyph name="fi" format="2">
	<advance width="319"/>
	<unicode hex="FB01"/>
	<outline>
		<contour>
			<point x="121" y="609" type="curve"/>
			<point x="121" y="0" type="line"/>
			<point x="51" y="0" type="line"/>
			<point x="51" y="489" type="line" smooth="yes"/>
			<point x="51" y="639"/>
			<point x="150" y="730"/>
			<point x="260" y="730" type="curve"/>
			<point x="275" y="730" type="line"/>
			<point x="275" y="639" type="line"/>
			<point x="252" y="650"/>
			<point x="226" y="657"/>
			<point x="193" y="657" type="curve"/>
			<point x="148" y="657"/>
			<point x="121" y="643"/>
		</contour>
		<contour>
			<point x="204" y="600" type="line"/>
			<point x="274" y="600" type="line"/>
			<point x="274" y="0" type="line"/>
			<point x="204" y="0" type="line"/>
		</contour>
		<contour>
			<point x="179" y="600" type="line"/>
			<point x="179" y="549" type="line"/>
			<point x="8" y="549" type="line"/>
			<point x="8" y="600" type="line"/>
		</contour>
	</outline>
</glyph>
<glyph name="fl" format="2">
	<advance width="309"/>
	<unicode hex="FB02"/>
	<outline>
		<contour>
			<point x="121" y="629" type="curve"/>
			<point x="121" y="0" type="line"/>
			<point x="51" y="0" type="line"/>
			<point x="51" y="509" type="line" smooth="yes"/>
			<point x="51" y="622"/>
			<point x="128" y="730"/>
			<point x="203" y="730" type="curve"/>
			<point x="216" y="730" type="line"/>
			<point x="216" y="660" type="line"/>
			<point x="205" y="665"/>
			<point x="189" y="667"/>
			<point x="169" y="667" type="curve"/>
			<point x="140" y="667"/>
			<point x="121" y="659"/>
		</contour>
		<contour>
			<point x="179" y="600" type="line"/>
			<point x="179" y="549" type="line"/>
			<point x="8" y="549" type="line"/>
			<point x="8" y="600" type="line"/>
		</contour>
		<component base="l" xOffset="169"/>
	</outline>
</glyph>
<glyph name="Ccedilla.2" format="2">
	<advance width="230"/>
	<outline>
		<contour>
			<point x="181" y="-132" type="curve" smooth="yes"/>
			<point x="150" y="-132"/>
			<point x="134" y="-111"/>
			<point x="125" y="-94" type="curve"/>
			<point x="129" y="-89" type="line"/>
			<point x="137" y="-95"/>
			<point x="143" y="-99"/>
			<point x="159" y="-99" type="curve"/>
			<point x="175" y="-99"/>
			<point x="183" y="-87"/>
			<point x="183" y="-76" type="curve"/>
			<point x="183" y="-63"/>
			<point x="177" y="-55"/>
			<point x="167" y="-55" type="curve"/>
			<point x="159" y="-55"/>
			<point x="155" y="-58"/>
			<point x="148" y="-64" type="curve"/>
			<point x="142" y="-59" type="line"/>
			<point x="170" y="-4" type="line"/>
			<point x="150" y="12" type="line"/>
			<point x="188" y="2" type="line"/>
			<point x="168" y="-37" type="line"/>
			<point x="172" y="-40" type="line"/>
			<point x="178" y="-38"/>
			<point x="185" y="-37"/>
			<point x="191" y="-37" type="curve"/>
			<point x="214" y="-37"/>
			<point x="233" y="-49"/>
			<point x="233" y="-77" type="curve"/>
			<point x="233" y="-109"/>
			<point x="209" y="-132"/>
		</contour>
		<component base="C.2"/>
	</outline>
</glyph>
<glyph name="E.2" format="2">
	<advance width="198"/>
	<outline>
		<contour>
			<point x="5" y="519" type="line"/>
			<point x="98" y="730" type="line"/>
			<point x="204" y="730" type="line"/>
			<point x="74" y="517" type="line"/>
			<point x="5" y="517" type="line"/>
		</contour>
		<contour>
			<point x="154" y="365" type="line"/>
			<point x="123" y="365" type="line"/>
			<point x="5" y="516" type="line"/>
			<point x="5" y="517" type="line"/>
			<point x="74" y="517" type="line"/>
		</contour>
		<contour>
			<point x="5" y="214" type="line"/>
			<point x="123" y="365" type="line"/>
			<point x="153" y="365" type="line"/>
			<point x="74" y="212" type="line"/>
			<point x="5" y="212" type="line"/>
		</contour>
		<contour>
			<point x="205" y="0" type="line"/>
			<point x="98" y="0" type="line"/>
			<point x="5" y="211" type="line"/>
			<point x="5" y="212" type="line"/>
			<point x="74" y="212" type="line"/>
		</contour>
	</outline>
</glyph>
<glyph name="K.2" format="2">
	<advance width="280"/>
	<outline>
		<contour>
			<point x="103" y="258" type="curve"/>
			<point x="106" y="290" type="line"/>
			<point x="118" y="279" type="line"/>
			<point x="226" y="292" type="line"/>
			<point x="273" y="0" type="line"/>
			<point x="192" y="0" type="line"/>
			<point x="172" y="174" type="line" smooth="yes"/>
			<point x="163" y="248"/>
			<point x="145" y="265"/>
		</contour>
		<contour>
			<point x="30" y="730" type="line"/>
			<point x="105" y="730" type="line"/>
			<point x="105" y="649" type="line"/>
			<point x="81" y="297" type="line"/>
			<point x="91" y="295" type="line"/>
			<point x="185" y="730" type="line"/>
			<point x="275" y="730" type="line"/>
			<point x="275" y="663" type="line"/>
			<point x="253" y="657" type="line" smooth="yes"/>
			<point x="197" y="642"/>
			<point x="178" y="563"/>
			<point x="141" y="412" type="curve"/>
			<point x="120" y="325"/>
			<point x="105" y="277"/>
			<point x="105" y="214" type="curve"/>
			<point x="105" y="0" type="line"/>
			<point x="30" y="0" type="line"/>
		</contour>
	</outline>
</glyph>
<glyph name="N.2" format="2">
	<advance width="399"/>
	<anchor x="141" y="760" name="top"/>
	<outline>
		<contour>
			<point x="69" y="730" type="line"/>
			<point x="96" y="730" type="line"/>
			<point x="212" y="0" type="line"/>
			<point x="184" y="0" type="line"/>
		</contour>
		<contour>
			<point x="25" y="730" type="line"/>
			<point x="85" y="730" type="line"/>
			<point x="93" y="607" type="line"/>
			<point x="76" y="607" type="line"/>
			<point x="90" y="376" type="line"/>
			<point x="96" y="0" type="line"/>
			<point x="25" y="0" type="line"/>
		</contour>
		<contour>
			<point x="204" y="123" type="line"/>
			<point x="161" y="730" type="line"/>
			<point x="204" y="730" type="line"/>
			<point x="212" y="607" type="line"/>
			<point x="195" y="607" type="line"/>
			<point x="237" y="0" type="line"/>
			<point x="195" y="0" type="line"/>
			<point x="187" y="123" type="line"/>
		</contour>
		<contour>
			<point x="188" y="730" type="line"/>
			<point x="215" y="730" type="line"/>
			<point x="331" y="0" type="line"/>
			<point x="303" y="0" type="line"/>
		</contour>
		<contour>
			<point x="374" y="0" type="line"/>
			<point x="314" y="0" type="line"/>
			<point x="306" y="123" type="line"/>
			<point x="323" y="123" type="line"/>
			<point x="319" y="354" type="line"/>
			<point x="302" y="730" type="line"/>
			<point x="374" y="730" type="line"/>
		</contour>
	</outline>
</glyph>
<glyph name="Q.2" format="2">
	<advance width="298"/>
	<anchor x="147" y="760" name="top"/>
	<outline>
		<contour>
			<point x="142" y="672" type="curve" smooth="yes"/>
			<point x="112" y="672"/>
			<point x="105" y="650"/>
			<point x="105" y="615" type="curve"/>
			<point x="105" y="151" type="line" smooth="yes"/>
			<point x="105" y="79"/>
			<point x="125" y="68"/>
			<point x="149" y="68" type="curve"/>
			<point x="175" y="68"/>
			<point x="181" y="99"/>
			<point x="181" y="148" type="curve"/>
			<point x="181" y="589" type="line" smooth="yes"/>
			<point x="181" y="661"/>
			<point x="162" y="672"/>
		</contour>
		<contour>
			<point x="135" y="0" type="curve" smooth="yes"/>
			<point x="67" y="0"/>
			<point x="30" y="32"/>
			<point x="30" y="117" type="curve"/>
			<point x="30" y="605" type="line" smooth="yes"/>
			<point x="30" y="703"/>
			<point x="84" y="740"/>
			<point x="149" y="740" type="curve"/>
			<point x="219" y="740"/>
			<point x="256" y="709"/>
			<point x="256" y="623" type="curve"/>
			<point x="256" y="163" type="line" smooth="yes"/>
			<point x="256" y="86"/>
			<point x="218" y="34"/>
			<point x="163" y="27" type="curve"/>
			<point x="163" y="17" type="line"/>
			<point x="220" y="18" type="line"/>
			<point x="280" y="-44"/>
			<point x="317" y="-67"/>
			<point x="371" y="-67" type="curve"/>
			<point x="414" y="-67"/>
			<point x="431" y="-57"/>
			<point x="432" y="-31" type="curve"/>
			<point x="435" y="24" type="line"/>
			<point x="449" y="24" type="line"/>
			<point x="452" y="-27" type="line" smooth="yes"/>
			<point x="455" y="-85"/>
			<point x="436" y="-130"/>
			<point x="353" y="-130" type="curve"/>
			<point x="293" y="-130"/>
			<point x="242" y="-100"/>
			<point x="184" y="-33" type="curve"/>
			<point x="164" y="-9"/>
			<point x="154" y="0"/>
		</contour>
	</outline>
</glyph>
<glyph name="R.2" format="2">
	<advance width="286"/>
	<outline>
		<contour>
			<point x="30" y="730" type="line"/>
			<point x="105" y="730" type="line"/>
			<point x="105" y="0" type="line"/>
			<point x="30" y="0" type="line"/>
		</contour>
		<contour>
			<point x="71" y="96" type="line"/>
			<point x="124" y="119" type="line"/>
			<point x="169" y="138"/>
			<point x="181" y="160"/>
			<point x="181" y="195" type="curve"/>
			<point x="181" y="579" type="line" smooth="yes"/>
			<point x="181" y="644"/>
			<point x="163" y="662"/>
			<point x="113" y="662" type="curve"/>
			<point x="113" y="662"/>
			<point x="71" y="662"/>
			<point x="71" y="662" type="curve"/>
			<point x="71" y="730" type="line"/>
			<point x="120" y="730" type="line" smooth="yes"/>
			<point x="206" y="730"/>
			<point x="256" y="695"/>
			<point x="256" y="604" type="curve"/>
			<point x="256" y="255" type="line" smooth="yes"/>
			<point x="256" y="165"/>
			<point x="197" y="131"/>
			<point x="128" y="101" type="curve"/>
			<point x="78" y="79" type="line"/>
		</contour>
		<contour>
			<point x="441" y="-67" type="curve" smooth="yes"/>
			<point x="491" y="-67"/>
			<point x="511" y="-57"/>
			<point x="512" y="-31" type="curve"/>
			<point x="515" y="24" type="line"/>
			<point x="529" y="24" type="line"/>
			<point x="532" y="-27" type="line" smooth="yes"/>
			<point x="535" y="-85"/>
			<point x="514" y="-130"/>
			<point x="423" y="-130" type="curve"/>
			<point x="341" y="-130"/>
			<point x="263" y="-80"/>
			<point x="181" y="66" type="curve"/>
			<point x="165" y="94"/>
			<point x="147" y="103"/>
			<point x="105" y="84" type="curve"/>
			<point x="102" y="104" type="line"/>
			<point x="165" y="124" type="line"/>
			<point x="169" y="107" type="line"/>
			<point x="220" y="118" type="line"/>
			<point x="299" y="-21"/>
			<point x="361" y="-67"/>
		</contour>
	</outline>
</glyph>
<glyph name="S.2" format="2">
	<advance width="243"/>
	<anchor x="127" y="750" name="top"/>
	<outline>
		<contour>
			<point x="6" y="617" type="curve" smooth="yes"/>
			<point x="6" y="703"/>
			<point x="64" y="740"/>
			<point x="132" y="740" type="curve"/>
			<point x="198" y="740"/>
			<point x="229" y="709"/>
			<point x="229" y="647" type="curve"/>
			<point x="229" y="580"/>
			<point x="221" y="504"/>
			<point x="212" y="445" type="curve"/>
			<point x="136" y="445" type="line"/>
			<point x="184" y="537"/>
			<point x="205" y="602"/>
			<point x="205" y="636" type="curve"/>
			<point x="205" y="664"/>
			<point x="184" y="672"/>
			<point x="132" y="672" type="curve"/>
			<point x="91" y="672"/>
			<point x="81" y="652"/>
			<point x="81" y="626" type="curve"/>
			<point x="81" y="494"/>
			<point x="224" y="259"/>
			<point x="224" y="115" type="curve"/>
			<point x="224" y="26"/>
			<point x="171" y="-11"/>
			<point x="108" y="-11" type="curve"/>
			<point x="56" y="-11"/>
			<point x="31" y="20"/>
			<point x="31" y="82" type="curve"/>
			<point x="31" y="120"/>
			<point x="31" y="196"/>
			<point x="42" y="264" type="curve"/>
			<point x="108" y="264" type="line"/>
			<point x="64" y="157"/>
			<point x="55" y="119"/>
			<point x="55" y="92" type="curve"/>
			<point x="55" y="65"/>
			<point x="70" y="57"/>
			<point x="108" y="57" type="curve"/>
			<point x="141" y="57"/>
			<point x="149" y="77"/>
			<point x="149" y="103" type="curve"/>
			<point x="149" y="216"/>
			<point x="6" y="501"/>
		</contour>
	</outline>
</glyph>
<glyph name="S.3" format="2">
	<advance width="198"/>
	<outline>
		<contour>
			<point x="2" y="469" type="line"/>
			<point x="75" y="730" type="line"/>
			<point x="181" y="730" type="line"/>
			<point x="71" y="467" type="line"/>
			<point x="2" y="467" type="line"/>
		</contour>
		<contour>
			<point x="202" y="262" type="line"/>
			<point x="133" y="262" type="line"/>
			<point x="2" y="466" type="line"/>
			<point x="2" y="467" type="line"/>
			<point x="71" y="467" type="line"/>
		</contour>
		<contour>
			<point x="202" y="261" type="line"/>
			<point x="129" y="0" type="line"/>
			<point x="22" y="0" type="line"/>
			<point x="133" y="262" type="line"/>
			<point x="202" y="262" type="line"/>
		</contour>
	</outline>
</glyph>
<glyph name="W.2" format="2">
	<advance width="375"/>
	<outline>
		<contour>
			<point x="243" y="319" type="line"/>
			<point x="287" y="730" type="line"/>
			<point x="375" y="730" type="line"/>
			<point x="251" y="0" type="line"/>
			<point x="123" y="0" type="line"/>
			<point x="140" y="70" type="line"/>
			<point x="229" y="70" type="line"/>
		</contour>
		<contour>
			<point x="0" y="730" type="line"/>
			<point x="90" y="730" type="line"/>
			<point x="143" y="70" type="line"/>
			<point x="251" y="0" type="line"/>
			<point x="123" y="0" type="line"/>
		</contour>
		<contour>
			<point x="173" y="69" type="line"/>
			<point x="144" y="730" type="line"/>
			<point x="229" y="730" type="line"/>
			<point x="201" y="69" type="line"/>
		</contour>
	</outline>
</glyph>
<glyph name="Z.2" format="2">
	<advance width="243"/>
	<outline>
		<contour>
			<point x="72" y="346" type="line"/>
			<point x="25" y="346" type="line"/>
			<point x="158" y="657" type="line"/>
			<point x="150" y="668" type="line"/>
			<point x="226" y="730" type="line"/>
			<point x="121" y="414" type="line"/>
			<point x="133" y="399" type="line"/>
		</contour>
		<contour>
			<point x="45" y="665" type="line"/>
			<point x="45" y="730" type="line"/>
			<point x="226" y="730" type="line"/>
			<point x="186" y="665" type="line"/>
		</contour>
		<contour>
			<point x="30" y="0" type="line"/>
			<point x="80" y="65" type="line"/>
			<point x="228" y="65" type="line"/>
			<point x="228" y="0" type="line"/>
		</contour>
		<contour>
			<point x="59" y="0" type="line"/>
			<point x="12" y="0" type="line"/>
			<point x="127" y="338" type="line"/>
			<point x="119" y="349" type="line"/>
			<point x="223" y="405" type="line"/>
			<point x="80" y="74" type="line"/>
			<point x="92" y="59" type="line"/>
		</contour>
		<contour>
			<point x="62" y="346" type="line"/>
			<point x="62" y="405" type="line"/>
			<point x="223" y="405" type="line"/>
			<point x="183" y="346" type="line"/>
		</contour>
	</outline>
</glyph>
<glyph name="brevecombcy" format="2">
	<advance width="280"/>
	<outline>
		<contour>
			<point x="243" y="730" type="line"/>
			<point x="173" y="730" type="line"/>
			<point x="175" y="720" type="line" smooth="yes"/>
			<point x="184" y="675"/>
			<point x="175" y="650"/>
			<point x="143" y="650" type="curve"/>
			<point x="111" y="650"/>
			<point x="102" y="675"/>
			<point x="111" y="720" type="curve"/>
			<point x="113" y="730" type="line"/>
			<point x="43" y="730" type="line"/>
			<point x="43" y="720" type="line" smooth="yes"/>
			<point x="43" y="667"/>
			<point x="79" y="637"/>
			<point x="143" y="636" type="curve"/>
			<point x="207" y="635"/>
			<point x="243" y="665"/>
			<point x="243" y="720" type="curve"/>
		</contour>
	</outline>
</glyph>
<glyph name="eight.OP" format="2">
	<advance width="290"/>
	<outline>
		<contour>
			<point x="250" y="623" type="curve"/>
			<point x="250" y="525" type="line" smooth="yes"/>
			<point x="250" y="436"/>
			<point x="221" y="397"/>
			<point x="163" y="386" type="curve"/>
			<point x="163" y="362" type="line"/>
			<point x="142" y="361" type="line"/>
			<point x="135" y="398" type="line"/>
			<point x="145" y="398" type="line" smooth="yes"/>
			<point x="172" y="398"/>
			<point x="180" y="421"/>
			<point x="180" y="465" type="curve"/>
			<point x="180" y="592" type="line"/>
			<point x="180" y="664"/>
			<point x="163" y="675"/>
			<point x="145" y="675" type="curve"/>
			<point x="117" y="675"/>
			<point x="110" y="653"/>
			<point x="110" y="617" type="curve"/>
			<point x="110" y="465" type="line" smooth="yes"/>
			<point x="110" y="421"/>
			<point x="118" y="398"/>
			<point x="145" y="398" type="curve"/>
			<point x="155" y="398" type="line"/>
			<point x="148" y="361" type="line"/>
			<point x="127" y="362" type="line"/>
			<point x="127" y="386" type="line"/>
			<point x="69" y="397"/>
			<point x="40" y="436"/>
			<point x="40" y="525" type="curve"/>
			<point x="40" y="604" type="line"/>
			<point x="37" y="702"/>
			<point x="89" y="740"/>
			<point x="152" y="740" type="curve"/>
			<point x="216" y="740"/>
			<point x="250" y="709"/>
		</contour>
		<contour>
			<point x="25" y="107" type="curve"/>
			<point x="25" y="235" type="line" smooth="yes"/>
			<point x="25" y="303"/>
			<point x="34" y="361"/>
			<point x="62" y="381" type="curve"/>
			<point x="127" y="376" type="line"/>
			<point x="127" y="397" type="line"/>
			<point x="145" y="398" type="line"/>
			<point x="155" y="361" type="line"/>
			<point x="142" y="361" type="line" smooth="yes"/>
			<point x="108" y="361"/>
			<point x="95" y="340"/>
			<point x="95" y="295" type="curve"/>
			<point x="95" y="138" type="line"/>
			<point x="95" y="66"/>
			<point x="121" y="55"/>
			<point x="152" y="55" type="curve"/>
			<point x="187" y="55"/>
			<point x="195" y="77"/>
			<point x="195" y="113" type="curve"/>
			<point x="195" y="295" type="line" smooth="yes"/>
			<point x="195" y="340"/>
			<point x="182" y="361"/>
			<point x="148" y="361" type="curve"/>
			<point x="135" y="361" type="line"/>
			<point x="145" y="398" type="line"/>
			<point x="163" y="397" type="line"/>
			<point x="163" y="376" type="line"/>
			<point x="228" y="381" type="line"/>
			<point x="256" y="361"/>
			<point x="265" y="303"/>
			<point x="265" y="235" type="curve"/>
			<point x="265" y="126" type="line"/>
			<point x="269" y="28"/>
			<point x="210" y="-10"/>
			<point x="140" y="-10" type="curve"/>
			<point x="66" y="-10"/>
			<point x="25" y="21"/>
		</contour>
	</outline>
</glyph>
<glyph name="epsilon.ss02" format="2">
	<advance width="244"/>
	<outline>
		<contour>
			<point x="117" y="-10" type="curve" smooth="yes"/>
			<point x="177" y="-10"/>
			<point x="208" y="62"/>
			<point x="204" y="157" type="curve"/>
			<point x="201" y="238" type="line"/>
			<point x="187" y="238" type="line"/>
			<point x="184" y="160" type="line" smooth="yes"/>
			<point x="182" y="96"/>
			<point x="172" y="58"/>
			<point x="149" y="58" type="curve"/>
			<point x="126" y="58"/>
			<point x="105" y="69"/>
			<point x="105" y="141" type="curve"/>
			<point x="105" y="484" type="line" smooth="yes"/>
			<point x="105" y="520"/>
			<point x="111" y="542"/>
			<point x="141" y="542" type="curve"/>
			<point x="179" y="542"/>
			<point x="195" y="534"/>
			<point x="195" y="515" type="curve"/>
			<point x="195" y="489"/>
			<point x="178" y="451"/>
			<point x="118" y="370" type="curve"/>
			<point x="194" y="370" type="line"/>
			<point x="211" y="423"/>
			<point x="214" y="490"/>
			<point x="214" y="516" type="curve"/>
			<point x="214" y="579"/>
			<point x="189" y="610"/>
			<point x="137" y="610" type="curve"/>
			<point x="82" y="610"/>
			<point x="35" y="573"/>
			<point x="35" y="474" type="curve"/>
			<point x="35" y="107" type="line" smooth="yes"/>
			<point x="35" y="21"/>
			<point x="63" y="-10"/>
		</contour>
		<contour>
			<point x="88" y="310" type="line"/>
			<point x="88" y="290" type="line"/>
			<point x="190" y="290" type="line"/>
			<point x="190" y="310" type="line"/>
		</contour>
	</outline>
</glyph>
<glyph name="m.3" format="2">
	<advance width="507"/>
	<outline>
		<contour>
			<point x="35" y="600" type="line"/>
			<point x="105" y="600" type="line"/>
			<point x="100" y="392" type="line"/>
			<point x="77" y="392" type="line"/>
			<point x="104" y="0" type="line"/>
			<point x="25" y="0" type="line"/>
		</contour>
		<contour>
			<point x="392" y="392" type="line"/>
			<point x="411" y="600" type="line"/>
			<point x="472" y="600" type="line"/>
			<point x="482" y="0" type="line"/>
			<point x="405" y="0" type="line"/>
			<point x="418" y="392" type="line"/>
		</contour>
		<contour>
			<point x="51" y="600" type="line"/>
			<point x="110" y="600" type="line"/>
			<point x="190" y="207" type="line"/>
			<point x="201" y="207" type="line"/>
			<point x="191" y="0" type="line"/>
			<point x="170" y="0" type="line"/>
		</contour>
		<contour>
			<point x="201" y="207" type="line"/>
			<point x="239" y="600" type="line"/>
			<point x="280" y="600" type="line"/>
			<point x="246" y="415" type="line"/>
			<point x="201" y="0" type="line"/>
			<point x="170" y="0" type="line"/>
		</contour>
		<contour>
			<point x="237" y="367" type="line"/>
			<point x="280" y="600" type="line"/>
			<point x="340" y="207" type="line"/>
			<point x="351" y="207" type="line"/>
			<point x="343" y="0" type="line"/>
			<point x="312" y="0" type="line"/>
			<point x="250" y="367" type="line"/>
		</contour>
		<contour>
			<point x="351" y="207" type="line"/>
			<point x="411" y="600" type="line"/>
			<point x="435" y="600" type="line"/>
			<point x="343" y="0" type="line"/>
			<point x="312" y="0" type="line"/>
		</contour>
	</outline>
</glyph>
<glyph name="n.3" format="2">
	<advance width="408"/>
	<outline>
		<contour>
			<point x="69" y="600" type="line"/>
			<point x="96" y="600" type="line"/>
			<point x="212" y="0" type="line"/>
			<point x="184" y="0" type="line"/>
		</contour>
		<contour>
			<point x="25" y="600" type="line"/>
			<point x="85" y="600" type="line"/>
			<point x="93" y="477" type="line"/>
			<point x="76" y="477" type="line"/>
			<point x="90" y="246" type="line"/>
			<point x="96" y="0" type="line"/>
			<point x="25" y="0" type="line"/>
		</contour>
		<contour>
			<point x="197" y="600" type="line"/>
			<point x="224" y="600" type="line"/>
			<point x="340" y="0" type="line"/>
			<point x="312" y="0" type="line"/>
		</contour>
		<contour>
			<point x="383" y="0" type="line"/>
			<point x="323" y="0" type="line"/>
			<point x="315" y="123" type="line"/>
			<point x="332" y="123" type="line"/>
			<point x="318" y="354" type="line"/>
			<point x="311" y="600" type="line"/>
			<point x="383" y="600" type="line"/>
		</contour>
		<contour>
			<point x="204" y="123" type="line"/>
			<point x="170" y="600" type="line"/>
			<point x="213" y="600" type="line"/>
			<point x="221" y="477" type="line"/>
			<point x="204" y="477" type="line"/>
			<point x="237" y="0" type="line"/>
			<point x="195" y="0" type="line"/>
			<point x="187" y="123" type="line"/>
		</contour>
	</outline>
</glyph>
<glyph name="nine.OP" format="2">
	<advance width="266"/>
	<anchor x="98" y="0" name="bottom"/>
	<outline>
		<contour>
			<point x="161" y="398" type="curve"/>
			<point x="161" y="459" type="line"/>
			<point x="161" y="534"/>
			<point x="143" y="545"/>
			<point x="122" y="545" type="curve"/>
			<point x="100" y="545"/>
			<point x="95" y="523"/>
			<point x="95" y="488" type="curve"/>
			<point x="95" y="287" type="line" smooth="yes"/>
			<point x="95" y="251"/>
			<point x="102" y="235"/>
			<point x="118" y="235" type="curve"/>
			<point x="139" y="235"/>
			<point x="161" y="304"/>
		</contour>
		<contour>
			<point x="161" y="31" type="curve"/>
			<point x="161" y="191" type="line"/>
			<point x="184" y="343" type="line"/>
			<point x="174" y="345" type="line"/>
			<point x="153" y="195"/>
			<point x="122" y="170"/>
			<point x="86" y="170" type="curve"/>
			<point x="51" y="170"/>
			<point x="25" y="201"/>
			<point x="25" y="251" type="curve"/>
			<point x="25" y="475" type="line" smooth="yes"/>
			<point x="25" y="573"/>
			<point x="75" y="610"/>
			<point x="134" y="610" type="curve"/>
			<point x="197" y="610"/>
			<point x="231" y="579"/>
			<point x="231" y="493" type="curve"/>
			<point x="231" y="6" type="line"/>
			<point x="231" y="-92"/>
			<point x="191" y="-130"/>
			<point x="117" y="-130" type="curve"/>
			<point x="62" y="-130"/>
			<point x="27" y="-70"/>
			<point x="30" y="37" type="curve"/>
			<point x="33" y="148" type="line"/>
			<point x="47" y="148" type="line"/>
			<point x="50" y="40" type="line" smooth="yes"/>
			<point x="52" y="-40"/>
			<point x="71" y="-65"/>
			<point x="113" y="-65" type="curve"/>
			<point x="142" y="-65"/>
			<point x="161" y="-46"/>
		</contour>
	</outline>
</glyph>
<glyph name="one.OP" format="2">
	<advance width="146"/>
	<outline>
		<contour>
			<point x="116" y="621" type="line"/>
			<point x="116" y="0" type="line"/>
			<point x="46" y="0" type="line"/>
			<point x="46" y="460" type="line"/>
			<point x="0" y="460" type="line"/>
			<point x="0" y="480" type="line"/>
			<point x="17" y="480" type="line" smooth="yes"/>
			<point x="49" y="480"/>
			<point x="63" y="497"/>
			<point x="85" y="562" type="curve"/>
			<point x="105" y="621" type="line"/>
		</contour>
	</outline>
</glyph>
<glyph name="r.2" format="2">
	<advance width="222"/>
	<outline>
		<contour>
			<point x="185" y="526" type="curve" smooth="yes"/>
			<point x="144" y="526"/>
			<point x="105" y="476"/>
			<point x="105" y="382" type="curve"/>
			<point x="105" y="0" type="line"/>
			<point x="35" y="0" type="line"/>
			<point x="35" y="600" type="line"/>
			<point x="104" y="600" type="line"/>
			<point x="104" y="589" type="line"/>
			<point x="83" y="437" type="line"/>
			<point x="93" y="435" type="line"/>
			<point x="113" y="577"/>
			<point x="143" y="600"/>
			<point x="206" y="600" type="curve"/>
			<point x="216" y="600" type="line"/>
			<point x="216" y="518" type="line"/>
			<point x="207" y="523"/>
			<point x="197" y="526"/>
		</contour>
	</outline>
</glyph>
<glyph name="uni0418.3" format="2">
	<advance width="518"/>
	<anchor x="273" y="730" name="top"/>
	<outline>
		<contour>
			<point x="306" y="0" type="line"/>
			<point x="422" y="730" type="line"/>
			<point x="449" y="730" type="line"/>
			<point x="334" y="0" type="line"/>
		</contour>
		<contour>
			<point x="425" y="607" type="line"/>
			<point x="433" y="730" type="line"/>
			<point x="493" y="730" type="line"/>
			<point x="493" y="0" type="line"/>
			<point x="422" y="0" type="line"/>
			<point x="428" y="376" type="line"/>
			<point x="442" y="607" type="line"/>
		</contour>
		<contour>
			<point x="314" y="730" type="line"/>
			<point x="357" y="730" type="line"/>
			<point x="314" y="123" type="line"/>
			<point x="331" y="123" type="line"/>
			<point x="323" y="0" type="line"/>
			<point x="281" y="0" type="line"/>
			<point x="323" y="607" type="line"/>
			<point x="306" y="607" type="line"/>
		</contour>
		<contour>
			<point x="187" y="0" type="line"/>
			<point x="303" y="730" type="line"/>
			<point x="330" y="730" type="line"/>
			<point x="215" y="0" type="line"/>
		</contour>
		<contour>
			<point x="195" y="730" type="line"/>
			<point x="238" y="730" type="line"/>
			<point x="195" y="123" type="line"/>
			<point x="212" y="123" type="line"/>
			<point x="204" y="0" type="line"/>
			<point x="162" y="0" type="line"/>
			<point x="204" y="607" type="line"/>
			<point x="187" y="607" type="line"/>
		</contour>
		<contour>
			<point x="68" y="0" type="line"/>
			<point x="184" y="730" type="line"/>
			<point x="211" y="730" type="line"/>
			<point x="96" y="0" type="line"/>
		</contour>
		<contour>
			<point x="93" y="123" type="line"/>
			<point x="85" y="0" type="line"/>
			<point x="25" y="0" type="line"/>
			<point x="25" y="730" type="line"/>
			<point x="97" y="730" type="line"/>
			<point x="80" y="354" type="line"/>
			<point x="76" y="123" type="line"/>
		</contour>
	</outline>
</glyph>
<glyph name="uni041A.3" format="2">
	<advance width="288"/>
	<outline>
		<contour>
			<point x="103" y="258" type="curve"/>
			<point x="106" y="290" type="line"/>
			<point x="118" y="279" type="line"/>
			<point x="231" y="292" type="line"/>
			<point x="278" y="0" type="line"/>
			<point x="197" y="0" type="line"/>
			<point x="177" y="174" type="line" smooth="yes"/>
			<point x="168" y="248"/>
			<point x="148" y="265"/>
		</contour>
		<contour>
			<point x="30" y="730" type="line"/>
			<point x="105" y="730" type="line"/>
			<point x="105" y="649" type="line"/>
			<point x="81" y="297" type="line"/>
			<point x="91" y="295" type="line"/>
			<point x="175" y="730" type="line"/>
			<point x="275" y="730" type="line"/>
			<point x="275" y="663" type="line"/>
			<point x="243" y="657" type="line" smooth="yes"/>
			<point x="191" y="647"/>
			<point x="177" y="564"/>
			<point x="141" y="415" type="curve"/>
			<point x="120" y="327"/>
			<point x="105" y="278"/>
			<point x="105" y="214" type="curve"/>
			<point x="105" y="0" type="line"/>
			<point x="30" y="0" type="line"/>
		</contour>
		<contour>
			<point x="100" y="276" type="line"/>
			<point x="104" y="293" type="line"/>
			<point x="122" y="287" type="line"/>
			<point x="193" y="506" type="line"/>
			<point x="275" y="506" type="line"/>
			<point x="275" y="454" type="line"/>
			<point x="253" y="448" type="line" smooth="yes"/>
			<point x="207" y="435"/>
			<point x="194" y="417"/>
			<point x="169" y="357" type="curve"/>
			<point x="155" y="323"/>
			<point x="148" y="304"/>
			<point x="144" y="287" type="curve"/>
			<point x="158" y="279" type="line"/>
		</contour>
	</outline>
</glyph>
<glyph name="uni0421.2" format="2">
	<advance width="230"/>
	<outline>
		<contour>
			<point x="10" y="368" type="line"/>
			<point x="133" y="730" type="line"/>
			<point x="229" y="730" type="line"/>
			<point x="63" y="365" type="line"/>
			<point x="10" y="365" type="line"/>
		</contour>
		<contour>
			<point x="230" y="0" type="line"/>
			<point x="133" y="0" type="line"/>
			<point x="10" y="362" type="line"/>
			<point x="10" y="365" type="line"/>
			<point x="63" y="365" type="line"/>
		</contour>
	</outline>
</glyph>
<glyph name="uni0428.3" format="2">
	<advance width="655"/>
	<outline>
		<contour>
			<point x="30" y="730" type="line"/>
			<point x="30" y="0" type="line"/>
			<point x="365" y="0" type="line"/>
			<point x="365" y="730" type="line"/>
			<point x="290" y="730" type="line"/>
			<point x="290" y="65" type="line"/>
			<point x="235" y="65" type="line"/>
			<point x="235" y="730" type="line"/>
			<point x="160" y="730" type="line"/>
			<point x="160" y="65" type="line"/>
			<point x="105" y="65" type="line"/>
			<point x="105" y="730" type="line"/>
		</contour>
		<contour>
			<point x="160" y="730" type="line"/>
			<point x="160" y="0" type="line"/>
			<point x="495" y="0" type="line"/>
			<point x="495" y="730" type="line"/>
			<point x="420" y="730" type="line"/>
			<point x="420" y="65" type="line"/>
			<point x="365" y="65" type="line"/>
			<point x="365" y="730" type="line"/>
			<point x="290" y="730" type="line"/>
			<point x="290" y="65" type="line"/>
			<point x="235" y="65" type="line"/>
			<point x="235" y="730" type="line"/>
		</contour>
		<contour>
			<point x="290" y="730" type="line"/>
			<point x="290" y="0" type="line"/>
			<point x="625" y="0" type="line"/>
			<point x="625" y="730" type="line"/>
			<point x="550" y="730" type="line"/>
			<point x="550" y="65" type="line"/>
			<point x="495" y="65" type="line"/>
			<point x="495" y="730" type="line"/>
			<point x="420" y="730" type="line"/>
			<point x="420" y="65" type="line"/>
			<point x="365" y="65" type="line"/>
			<point x="365" y="730" type="line"/>
		</contour>
	</outline>
</glyph>
<glyph name="uni0429.3" format="2">
	<advance width="660"/>
	<outline>
		<contour>
			<point x="575" y="65" type="line"/>
			<point x="635" y="-107" type="line"/>
			<point x="655" y="-107" type="line"/>
			<point x="655" y="65" type="line"/>
		</contour>
		<component base="uni0428.3"/>
	</outline>
</glyph>
<glyph name="uni042D.3" format="2">
	<advance width="236"/>
	<outline>
		<contour>
			<point x="195" y="354" type="line"/>
			<point x="52" y="354" type="line"/>
			<point x="52" y="374" type="line"/>
			<point x="195" y="374" type="line"/>
		</contour>
		<component base="C.2" xScale="-1" xOffset="240"/>
	</outline>
</glyph>
<glyph name="uni0439.2" format="2">
	<advance width="408"/>
	<outline>
		<contour>
			<point x="196" y="0" type="line"/>
			<point x="312" y="600" type="line"/>
			<point x="339" y="600" type="line"/>
			<point x="224" y="0" type="line"/>
		</contour>
		<contour>
			<point x="315" y="477" type="line"/>
			<point x="323" y="600" type="line"/>
			<point x="383" y="600" type="line"/>
			<point x="383" y="0" type="line"/>
			<point x="312" y="0" type="line"/>
			<point x="318" y="246" type="line"/>
			<point x="332" y="477" type="line"/>
		</contour>
		<contour>
			<point x="68" y="0" type="line"/>
			<point x="184" y="600" type="line"/>
			<point x="211" y="600" type="line"/>
			<point x="96" y="0" type="line"/>
		</contour>
		<contour>
			<point x="93" y="123" type="line"/>
			<point x="85" y="0" type="line"/>
			<point x="25" y="0" type="line"/>
			<point x="25" y="600" type="line"/>
			<point x="97" y="600" type="line"/>
			<point x="90" y="354" type="line"/>
			<point x="76" y="123" type="line"/>
		</contour>
		<contour>
			<point x="195" y="600" type="line"/>
			<point x="238" y="600" type="line"/>
			<point x="204" y="123" type="line"/>
			<point x="221" y="123" type="line"/>
			<point x="213" y="0" type="line"/>
			<point x="171" y="0" type="line"/>
			<point x="204" y="477" type="line"/>
			<point x="187" y="477" type="line"/>
		</contour>
		<contour>
			<point x="323" y="730" type="line"/>
			<point x="251" y="730" type="line"/>
			<point x="253" y="720" type="line" smooth="yes"/>
			<point x="262" y="676"/>
			<point x="246" y="650"/>
			<point x="203" y="650" type="curve"/>
			<point x="160" y="650"/>
			<point x="144" y="676"/>
			<point x="153" y="720" type="curve"/>
			<point x="155" y="730" type="line"/>
			<point x="83" y="730" type="line"/>
			<point x="83" y="720" type="line" smooth="yes"/>
			<point x="83" y="671"/>
			<point x="131" y="637"/>
			<point x="203" y="636" type="curve"/>
			<point x="275" y="635"/>
			<point x="323" y="669"/>
			<point x="323" y="720" type="curve"/>
		</contour>
	</outline>
</glyph>
<glyph name="uni0439.3" format="2">
	<advance width="536"/>
	<outline>
		<contour>
			<point x="324" y="0" type="line"/>
			<point x="440" y="600" type="line"/>
			<point x="467" y="600" type="line"/>
			<point x="352" y="0" type="line"/>
		</contour>
		<contour>
			<point x="443" y="477" type="line"/>
			<point x="451" y="600" type="line"/>
			<point x="511" y="600" type="line"/>
			<point x="511" y="0" type="line"/>
			<point x="440" y="0" type="line"/>
			<point x="446" y="246" type="line"/>
			<point x="460" y="477" type="line"/>
		</contour>
		<contour>
			<point x="196" y="0" type="line"/>
			<point x="312" y="600" type="line"/>
			<point x="339" y="600" type="line"/>
			<point x="224" y="0" type="line"/>
		</contour>
		<contour>
			<point x="323" y="600" type="line"/>
			<point x="366" y="600" type="line"/>
			<point x="332" y="123" type="line"/>
			<point x="349" y="123" type="line"/>
			<point x="341" y="0" type="line"/>
			<point x="299" y="0" type="line"/>
			<point x="332" y="477" type="line"/>
			<point x="315" y="477" type="line"/>
		</contour>
		<contour>
			<point x="68" y="0" type="line"/>
			<point x="184" y="600" type="line"/>
			<point x="211" y="600" type="line"/>
			<point x="96" y="0" type="line"/>
		</contour>
		<contour>
			<point x="93" y="123" type="line"/>
			<point x="85" y="0" type="line"/>
			<point x="25" y="0" type="line"/>
			<point x="25" y="600" type="line"/>
			<point x="97" y="600" type="line"/>
			<point x="90" y="354" type="line"/>
			<point x="76" y="123" type="line"/>
		</contour>
		<contour>
			<point x="195" y="600" type="line"/>
			<point x="238" y="600" type="line"/>
			<point x="204" y="123" type="line"/>
			<point x="221" y="123" type="line"/>
			<point x="213" y="0" type="line"/>
			<point x="171" y="0" type="line"/>
			<point x="204" y="477" type="line"/>
			<point x="187" y="477" type="line"/>
		</contour>
		<contour>
			<point x="415" y="730" type="line"/>
			<point x="340" y="730" type="line"/>
			<point x="342" y="720" type="line" smooth="yes"/>
			<point x="349" y="685"/>
			<point x="339" y="652"/>
			<point x="275" y="651" type="curve"/>
			<point x="211" y="650"/>
			<point x="202" y="685"/>
			<point x="209" y="720" type="curve"/>
			<point x="211" y="730" type="line"/>
			<point x="135" y="730" type="line"/>
			<point x="135" y="720" type="line" smooth="yes"/>
			<point x="135" y="664"/>
			<point x="166" y="637"/>
			<point x="275" y="636" type="curve"/>
			<point x="384" y="637"/>
			<point x="415" y="664"/>
			<point x="415" y="720" type="curve"/>
		</contour>
	</outline>
</glyph>
<glyph name="uni0444.2" format="2">
	<advance width="426"/>
	<outline>
		<contour>
			<point x="319" y="490" type="curve"/>
			<point x="319" y="291" type="line"/>
			<point x="391" y="291" type="line"/>
			<point x="391" y="529" type="line" smooth="yes"/>
			<point x="391" y="579"/>
			<point x="364" y="610"/>
			<point x="327" y="610" type="curve"/>
			<point x="289" y="610"/>
			<point x="255" y="585"/>
			<point x="234" y="435" type="curve"/>
			<point x="224" y="437" type="line"/>
			<point x="243" y="566" type="line"/>
			<point x="248" y="589" type="line"/>
			<point x="248" y="730" type="line"/>
			<point x="178" y="730" type="line"/>
			<point x="178" y="589" type="line"/>
			<point x="183" y="562" type="line"/>
			<point x="202" y="437" type="line"/>
			<point x="192" y="435" type="line"/>
			<point x="171" y="585"/>
			<point x="137" y="610"/>
			<point x="99" y="610" type="curve"/>
			<point x="62" y="610"/>
			<point x="35" y="579"/>
			<point x="35" y="529" type="curve"/>
			<point x="35" y="291" type="line"/>
			<point x="107" y="291" type="line"/>
			<point x="107" y="490" type="line" smooth="yes"/>
			<point x="107" y="526"/>
			<point x="116" y="542"/>
			<point x="133" y="542" type="curve"/>
			<point x="155" y="542"/>
			<point x="178" y="474"/>
			<point x="178" y="382" type="curve"/>
			<point x="178" y="291" type="line"/>
			<point x="248" y="291" type="line"/>
			<point x="248" y="382" type="line" smooth="yes"/>
			<point x="248" y="474"/>
			<point x="271" y="542"/>
			<point x="293" y="542" type="curve"/>
			<point x="310" y="542"/>
			<point x="319" y="526"/>
		</contour>
		<contour>
			<point x="391" y="309" type="line"/>
			<point x="319" y="309" type="line"/>
			<point x="319" y="110" type="line" smooth="yes"/>
			<point x="319" y="74"/>
			<point x="310" y="58"/>
			<point x="293" y="58" type="curve"/>
			<point x="271" y="58"/>
			<point x="248" y="126"/>
			<point x="248" y="218" type="curve"/>
			<point x="248" y="309" type="line"/>
			<point x="178" y="309" type="line"/>
			<point x="178" y="218" type="line" smooth="yes"/>
			<point x="178" y="126"/>
			<point x="155" y="58"/>
			<point x="133" y="58" type="curve"/>
			<point x="116" y="58"/>
			<point x="107" y="74"/>
			<point x="107" y="110" type="curve"/>
			<point x="107" y="309" type="line"/>
			<point x="35" y="309" type="line"/>
			<point x="35" y="71" type="line" smooth="yes"/>
			<point x="35" y="21"/>
			<point x="62" y="-10"/>
			<point x="99" y="-10" type="curve"/>
			<point x="137" y="-10"/>
			<point x="171" y="15"/>
			<point x="192" y="165" type="curve"/>
			<point x="202" y="163" type="line"/>
			<point x="183" y="38" type="line"/>
			<point x="178" y="11" type="line"/>
			<point x="178" y="-130" type="line"/>
			<point x="248" y="-130" type="line"/>
			<point x="248" y="11" type="line"/>
			<point x="243" y="34" type="line"/>
			<point x="224" y="163" type="line"/>
			<point x="234" y="165" type="line"/>
			<point x="255" y="15"/>
			<point x="289" y="-10"/>
			<point x="327" y="-10" type="curve"/>
			<point x="364" y="-10"/>
			<point x="391" y="21"/>
			<point x="391" y="71" type="curve"/>
		</contour>
	</outline>
</glyph>
<glyph name="uni0448.2" format="2">
	<advance width="509"/>
	<outline>
		<contour>
			<point x="281" y="600" type="line"/>
			<point x="281" y="0" type="line"/>
			<point x="351" y="0" type="line"/>
			<point x="351" y="600" type="line"/>
		</contour>
		<contour>
			<point x="35" y="600" type="line"/>
			<point x="35" y="0" type="line"/>
			<point x="105" y="0" type="line"/>
			<point x="105" y="600" type="line"/>
		</contour>
		<contour>
			<point x="158" y="600" type="line"/>
			<point x="158" y="0" type="line"/>
			<point x="228" y="0" type="line"/>
			<point x="228" y="600" type="line"/>
		</contour>
		<contour>
			<point x="404" y="600" type="line"/>
			<point x="404" y="0" type="line"/>
			<point x="474" y="0" type="line"/>
			<point x="474" y="600" type="line"/>
		</contour>
		<contour>
			<point x="281" y="600" type="line"/>
			<point x="281" y="0" type="line"/>
			<point x="351" y="0" type="line"/>
			<point x="351" y="600" type="line"/>
		</contour>
		<contour>
			<point x="454" y="0" type="line"/>
			<point x="454" y="65" type="line"/>
			<point x="55" y="65" type="line"/>
			<point x="55" y="0" type="line"/>
		</contour>
	</outline>
</glyph>
<glyph name="z.2" format="2">
	<advance width="227"/>
	<anchor x="110" y="640" name="top"/>
	<outline>
		<contour>
			<point x="31" y="520" type="line"/>
			<point x="31" y="600" type="line"/>
			<point x="216" y="600" type="line"/>
			<point x="132" y="565" type="line"/>
		</contour>
		<contour>
			<point x="5" y="0" type="line"/>
			<point x="89" y="34" type="line"/>
			<point x="217" y="80" type="line"/>
			<point x="217" y="0" type="line"/>
		</contour>
		<contour>
			<point x="62" y="295" type="line"/>
			<point x="15" y="295" type="line"/>
			<point x="139" y="557" type="line"/>
			<point x="130" y="568" type="line"/>
			<point x="216" y="600" type="line"/>
			<point x="106" y="335" type="line"/>
			<point x="118" y="320" type="line"/>
		</contour>
		<contour>
			<point x="56" y="295" type="line"/>
			<point x="90" y="326" type="line"/>
			<point x="213" y="326" type="line"/>
			<point x="183" y="295" type="line"/>
		</contour>
		<contour>
			<point x="49" y="0" type="line"/>
			<point x="2" y="0" type="line"/>
			<point x="122" y="287" type="line"/>
			<point x="114" y="298" type="line"/>
			<point x="213" y="326" type="line"/>
			<point x="84" y="41" type="line"/>
			<point x="96" y="26" type="line"/>
		</contour>
	</outline>
</glyph>
<glyph name="zero.slash.OP" format="2">
	<advance width="276"/>
	<anchor x="143" y="640" name="top"/>
	<outline>
		<contour>
			<point x="202" y="535" type="line"/>
			<point x="96" y="70" type="line"/>
			<point x="76" y="70" type="line"/>
			<point x="182" y="535" type="line"/>
		</contour>
		<component base="zero.OP"/>
	</outline>
</glyph>
